<?xml version="1.0" encoding="utf-8"?>
<!-- Generator: Adobe Illustrator 19.2.0, SVG Export Plug-In . SVG Version: 6.00 Build 0)  -->
<svg version="1.1" id="Planety" xmlns="http://www.w3.org/2000/svg" xmlns:xlink="http://www.w3.org/1999/xlink" x="0px" y="0px"
	 width="2560px" height="1440px" viewBox="0 0 2560 1440" style="enable-background:new 0 0 2560 1440;" xml:space="preserve">
<style type="text/css">
	.st0{clip-path:url(#SVGID_2_);}
	.st1{fill:#0CEEF4;}
	.st2{fill:#4C2547;}
	.st3{fill:#FF216A;}
	.st4{fill:#FFFFFF;}
</style>
<title>bg-commet</title>
<g>
	<defs>
		<rect id="SVGID_1_" x="1.3" width="2558.7" height="1440"/>
	</defs>
	<clipPath id="SVGID_2_">
		<use xlink:href="#SVGID_1_"  style="overflow:visible;"/>
	</clipPath>
	<g class="st0">
		<g id="Kometa">
			
				<ellipse transform="matrix(0.4741 -0.8805 0.8805 0.4741 573.0274 2539.77)" class="st1" cx="2412.5" cy="790.2" rx="56.9" ry="56.9"/>
			
				<rect x="2253.8" y="467.8" transform="matrix(0.4741 -0.8805 0.8805 0.4741 881.9519 2526.1255)" class="st1" width="603.7" height="113.9"/>
			<path class="st2" d="M2527.5,664.1c-2.3-1.3-5.5,0.1-7.1,3l-2.4,4.5c-1.6,2.9-5,4.1-7.6,2.7s-3.5-4.9-1.9-7.8l2.5-4.6l5.7-10.6
				l21.4-39.8l5.7-10.5l2.2-4.1c1.6-2.9,0.8-6.4-1.7-7.7s-5.8,0-7.4,2.8l-29.3,54.5l-4.1,7.6c-0.7,1.3-3.3,1.2-5.8-0.1
				s-4-3.5-3.3-4.7l4.1-7.6l8.8-16.4c1.6-2.9,0.8-6.4-1.7-7.7s-5.8,0-7.4,2.8l-8.8,16.4l-5.7,10.6l-3.6,6.6
				c-1.6,2.9-4.9,4.2-7.4,2.8s-3.2-4.8-1.7-7.7l3.6-6.6l5.7-10.6l21.2-39.5c1.6-2.9,0.8-6.4-1.7-7.7s-5.4-0.9-6.4,1l-4.7,8.7
				l-17.5,32.5l-5.7,10.6l-9.5,17.6c-1.6,2.9-4.9,4.2-7.4,2.8s-3.2-4.8-1.7-7.7l9.5-17.6l5.7-10.6l1.5-2.8c1.6-2.9,0.8-6.4-1.7-7.7
				s-5.8,0-7.4,2.8l-1.5,2.8l-5.7,10.6l-5.5,10.2l-5.7,10.6l-61.5,114.2c-1.6,2.9-0.5,6.6,2.4,8.1c0,0,0,0,0,0l70.6,38
				c2.9,1.6,6.6,0.5,8.1-2.4c0,0,0,0,0,0l72.6-134.8C2530.4,668.8,2529.8,665.4,2527.5,664.1z"/>
			
				<ellipse transform="matrix(0.4741 -0.8805 0.8805 0.4741 573.0274 2539.77)" class="st2" cx="2412.5" cy="790.2" rx="46.2" ry="46.2"/>
			<path class="st3" d="M2501.8,688.5c-2.5-1.3-5.8,0-7.4,2.8l-37.5,69.7c-1.6,2.9-4.8,4.3-7.1,3s-3-4.7-1.4-7.6l26.7-49.6
				c1.6-2.9,0.7-6.4-1.9-7.8s-6-0.2-7.6,2.7l-15.6,29c-1.6,2.9-4.8,4.3-7.1,3s-3-4.7-1.4-7.6l25.4-47.1c1.6-2.9,0.8-6.4-1.7-7.7
				s-5.8,0-7.4,2.8l-32.4,60.1c-1.6,2.9-4.9,4.2-7.4,2.8s-3.2-4.8-1.7-7.7l10.2-19c1.6-2.9,0.9-6.3-1.4-7.6s-5.5,0.1-7.1,3l-10,18.6
				l-5.7,10.6l-18,33.5c-1.6,2.9-0.5,6.6,2.4,8.1c0,0,0,0,0,0l51.6,27.8c2.9,1.6,6.6,0.5,8.1-2.4c0,0,0,0,0,0l18-33.5l5.7-10.6
				l33.2-61.7C2505,693.3,2504.3,689.8,2501.8,688.5z"/>
			
				<ellipse transform="matrix(0.4741 -0.8805 0.8805 0.4741 573.0274 2539.77)" class="st4" cx="2412.5" cy="790.2" rx="35.6" ry="35.6"/>
			<path class="st3" d="M2431.8,680.6l3.2-6c1.3-2.5,4.4-3.4,6.9-2.1l0,0c2.5,1.3,3.4,4.4,2.1,6.9l-3.2,6c-1.3,2.5-4.4,3.4-6.9,2.1
				l0,0C2431.4,686.2,2430.4,683.1,2431.8,680.6z"/>
			<path class="st2" d="M2468.7,588.5l18.9-35.1c1.3-2.5,4.4-3.4,6.9-2.1l0,0c2.5,1.3,3.4,4.4,2.1,6.9l-18.9,35.1
				c-1.3,2.5-4.4,3.4-6.9,2.1l0,0C2468.3,594.1,2467.4,591,2468.7,588.5z"/>
			<path class="st2" d="M2511.3,594.6l2.7-5c1.3-2.5,4.4-3.4,6.9-2.1l0,0c2.5,1.3,3.4,4.4,2.1,6.9l-2.7,5c-1.3,2.5-4.4,3.4-6.9,2.1
				l0,0C2510.9,600.2,2510,597.1,2511.3,594.6z"/>
			<path class="st2" d="M2517.6,539.7l2.7-5c1.3-2.5,4.4-3.4,6.9-2.1l0,0c2.5,1.3,3.4,4.4,2.1,6.9l-2.7,5c-1.3,2.5-4.4,3.4-6.9,2.1
				l0,0C2517.2,545.3,2516.2,542.2,2517.6,539.7z"/>
			<path class="st2" d="M2534.6,640.9l13.8-25.6c1.3-2.5,4.4-3.4,6.9-2.1l0,0c2.5,1.3,3.4,4.4,2.1,6.9l-13.8,25.6
				c-1.3,2.5-4.4,3.4-6.9,2.1l0,0C2534.2,646.5,2533.3,643.4,2534.6,640.9z"/>
			<path class="st3" d="M2478.5,677.9l3.2-6c1.3-2.5,4.4-3.4,6.9-2.1l0,0c2.5,1.3,3.4,4.4,2.1,6.9l-3.2,6c-1.3,2.5-4.4,3.4-6.9,2.1
				l0,0C2478.1,683.5,2477.1,680.4,2478.5,677.9z"/>
		</g>
	</g>
</g>
</svg>
