<?xml version="1.0" encoding="utf-8"?>
<!-- Generator: Adobe Illustrator 19.2.0, SVG Export Plug-In . SVG Version: 6.00 Build 0)  -->
<svg version="1.1" id="Popředí_-_astronaut" xmlns="http://www.w3.org/2000/svg" xmlns:xlink="http://www.w3.org/1999/xlink"
	 x="0px" y="0px" width="2560px" height="1440px" viewBox="0 0 2560 1440" style="enable-background:new 0 0 2560 1440;"
	 xml:space="preserve">
<style type="text/css">
	.st0{fill:#BCC0C1;}
	.st1{fill:#161615;}
	.st2{fill:#7F7D7A;}
	.st3{fill:#FFFFFF;}
	.st4{fill:#444341;}
</style>
<title>bg-macbook</title>
<g id="Noťas">
	<polygon class="st0" points="1058.7,1087.3 1138.7,1139.8 1163.2,1178.8 1041.2,1098.6 	"/>
	<polygon class="st1" points="1101.5,972.3 1039.6,1097.6 1058.9,1084.8 1099.6,1002.2 	"/>
	<polygon class="st2" points="1057.2,1085.5 1043.6,1094.1 1040.8,1099.3 1058.7,1087.3 	"/>
	<path class="st3" d="M1041.3,1098.6l121.9,80.1l0,0l-0.6,1c-1.5,2.2-4.5,2.8-6.7,1.4l-114.3-75.1c-2-1.3-2.5-4-1.2-5.9c0,0,0,0,0,0
		L1041.3,1098.6L1041.3,1098.6z"/>
	<path class="st3" d="M1037.8,1097.9l62-126.2c0.7-1.3,2.9-1.3,4.3-0.7l-64.5,131.3l-0.4-0.2
		C1037.6,1101.3,1037,1099.5,1037.8,1097.9z"/>
	<path class="st3" d="M1100.1,1003.2l-41.3,84.1l0,0l-0.4-0.2c-1-0.5-1.4-1.6-0.9-2.6l0,0l40.5-82.4l0,0L1100.1,1003.2
		L1100.1,1003.2z"/>
	<polygon class="st3" points="1104.1,971 1100.1,1003.1 1097.9,1002 1100.9,973.3 	"/>
	<polygon class="st4" points="1063.9,1092.1 1053.9,1104.1 1057.4,1106 1066.5,1093.8 	"/>
	<polygon class="st4" points="1068.1,1094.8 1060.8,1107.4 1066.5,1112.4 1072.7,1097.9 	"/>
	<polygon class="st4" points="1074.2,1098.8 1068.3,1113.6 1075.5,1118.3 1078.3,1102.2 	"/>
	<polygon class="st4" points="1081,1103.3 1077,1119.3 1084.5,1124.2 1084.4,1106.4 	"/>
	<polygon class="st4" points="1086.6,1107.5 1085.8,1125.1 1092.5,1129.5 1091.1,1109.9 	"/>
	<polygon class="st4" points="1092.5,1118.2 1093.4,1124.4 1098.7,1126.5 1098.4,1120.5 1092.4,1116.6 	"/>
	<polygon class="st4" points="1092.9,1110.9 1093.1,1115.6 1098.1,1118.8 1098.2,1114.8 	"/>
	<polygon class="st4" points="1093,1125.6 1094.4,1130.7 1101.5,1135.4 1099.3,1129.4 	"/>
	<path class="st4" d="M1110.9,1127.2c-0.9-0.6-1.4-0.2-1.2,0.8l1.2,4.7c0.4,1.2,1.1,2.3,2.2,3l28,18.4c0.9,0.6,1.2,0.3,0.7-0.6
		l-4.9-8.3c-0.7-1.1-1.6-2.1-2.7-2.8L1110.9,1127.2z"/>
</g>
</svg>
