<svg id="Planety" xmlns="http://www.w3.org/2000/svg" xmlns:xlink="http://www.w3.org/1999/xlink" viewBox="0 0 2560 1440"><defs><style>.cls-1{fill:none;}.cls-2{clip-path:url(#clip-path);}.cls-3{fill:#362c56;}</style><clipPath id="clip-path"><rect class="cls-1" x="1.33" width="2558.67" height="1440"/></clipPath></defs><title>hero-background</title><g class="cls-2"><path class="cls-3" d="M2072.47,512.5v-2c0-25.13-21.26-45.5-47.49-45.5H1892.41c-26.23,0-47.49-20.37-47.49-45.5v-2c0-25.13,21.26-45.5,47.49-45.5h59.5c26.23,0,47.49-20.37,47.49-45.5v-2c0-25.13-21.26-45.5-47.49-45.5H1718.09c-26.23,0-47.49-20.37-47.49-45.5v-2c0-25.13,21.26-45.5,47.49-45.5h106.47c26.23,0,47.49-20.37,47.49-45.5v-2c0-25.13,21.26-45.5,47.49-45.5h143c26.23,0,47.49-20.37,47.49-45.5v-2c0-25.13-21.26-45.5-47.49-45.5H560.49C534.26,0,513,20.37,513,45.5v2C513,72.63,534.26,93,560.49,93H672.18c26.23,0,47.49,20.37,47.49,45.5v2c0,25.13,21.26,45.5,47.49,45.5h64.72c26.23,0,47.49,20.37,47.49,45.5v2c0,25.13-21.26,45.5-47.49,45.5H638.78c-26.23,0-47.49,20.37-47.49,45.5v2c0,25.13,21.26,45.5,47.49,45.5H741.08c26.23,0,47.49,20.37,47.49,45.5v2c0,25.13-21.26,45.5-47.49,45.5H566.76c-26.23,0-47.49,20.37-47.49,45.5v2c0,25.13,21.26,45.5,47.49,45.5H961.32c26.23,0,47.49,20.37,47.49,45.5v2c0,25.13-21.26,45.5-47.49,45.5H760.91c-26.23,0-47.49,20.37-47.49,45.5v2c0,25.13,21.26,45.5,47.49,45.5h36.53c26.23,0,47.49,20.37,47.49,45.5v2c0,25.13-21.26,45.5-47.49,45.5H632.52C606.29,837,585,857.37,585,882.5v2c0,25.13,21.26,45.5,47.49,45.5h109.6c26.23,0,47.49,20.37,47.49,45.5h0c0,25.13,21.26,45.5,47.49,45.5h58.45c26.23,0,47.49,20.37,47.49,45.5v2c0,25.13-21.26,45.5-47.49,45.5H620c-26.23,0-47.49,20.37-47.49,45.5v2c0,25.13,21.26,45.5,47.49,45.5H846.5c26.23,0,47.49,20.37,47.49,45.5v2c0,25.13,21.26,45.5,47.49,45.5h81.42c26.23,0,47.49,20.37,47.49,45.5v2c0,25.13-21.26,45.5-47.49,45.5H655.48c-26.23,0-47.49,20.37-47.49,45.5v2c0,25.13,21.26,45.5,47.49,45.5h86.64c26.23,0,47.49,20.37,47.49,45.5v2c0,25.13,21.26,45.5,47.49,45.5h916.48c26.23,0,47.49-20.37,47.49-45.5v-2c0-25.13,21.26-45.5,47.49-45.5h86.64c26.23,0,47.49-20.37,47.49-45.5v-2c0-25.13-21.26-45.5-47.49-45.5h-388.3c-26.23,0-47.49-20.37-47.49-45.5v-2c0-25.13,21.26-45.5,47.49-45.5h300.62c26.23,0,47.49-20.37,47.49-45.5v-1c0-25.13-21.26-45.5-47.49-45.5H1710.79c-26.23,0-47.49-20.37-47.49-45.5v-3c0-25.13-21.26-45.5-47.49-45.5h-35.49c-26.23,0-47.49-20.37-47.49-45.5v-2c0-25.13,21.26-45.5,47.49-45.5h173.27c26.23,0,47.49-20.37,47.49-45.5h0c0-25.13,21.26-45.5,47.49-45.5h110.65c26.23,0,47.49-20.37,47.49-45.5v-2c0-25.13-21.26-45.5-47.49-45.5H1656.51c-26.23,0-47.49-20.37-47.49-45.5v-2c0-25.13,21.26-45.5,47.49-45.5h174.32c26.23,0,47.49-20.37,47.49-45.5v-2c0-25.13-21.26-45.5-47.49-45.5h-44.88c-26.23,0-47.49-20.37-47.49-45.5v-2c0-25.13,21.26-45.5,47.49-45.5h239C2051.21,558,2072.47,537.63,2072.47,512.5Z"/></g></svg>