<?xml version="1.0" encoding="utf-8"?>
<!-- Generator: Adobe Illustrator 19.2.0, SVG Export Plug-In . SVG Version: 6.00 Build 0)  -->
<svg version="1.1" id="Layer_1" xmlns="http://www.w3.org/2000/svg" xmlns:xlink="http://www.w3.org/1999/xlink" x="0px" y="0px"
	 width="400px" height="400px" viewBox="0 0 400 400" style="enable-background:new 0 0 400 400;" xml:space="preserve">
<style type="text/css">
	.st0{fill:#FFFFFF;}
	.st1{fill:#EFF5F7;}
</style>
<g>
	<path class="st0" d="M200,372c-94.8,0-172-77.2-172-172c0-94.8,77.2-172,172-172c94.8,0,172,77.2,172,172
		C372,294.8,294.8,372,200,372z"/>
	<path class="st1" d="M200,56c38.5,0,74.6,15,101.8,42.2S344,161.5,344,200s-15,74.6-42.2,101.8S238.5,344,200,344
		s-74.6-15-101.8-42.2S56,238.5,56,200s15-74.6,42.2-101.8S161.5,56,200,56 M200,0C89.5,0,0,89.5,0,200s89.5,200,200,200
		s200-89.5,200-200S310.5,0,200,0L200,0z"/>
</g>
</svg>
