<svg xmlns="http://www.w3.org/2000/svg" xmlns:xlink="http://www.w3.org/1999/xlink" width="300" zoomAndPan="magnify" viewBox="0 0 224.87999 149.999998" height="200" preserveAspectRatio="xMidYMid meet" version="1.0"><defs><clipPath id="ee75c14d4b"><path d="M 149 56 L 191.269531 56 L 191.269531 114 L 149 114 Z M 149 56 " clip-rule="nonzero"/></clipPath><clipPath id="92f61dcefe"><path d="M 33.851562 60 L 82 60 L 82 98 L 33.851562 98 Z M 33.851562 60 " clip-rule="nonzero"/></clipPath><clipPath id="0d751ab624"><path d="M 83 1.519531 L 128 1.519531 L 128 44 L 83 44 Z M 83 1.519531 " clip-rule="nonzero"/></clipPath><clipPath id="2ac16cfafc"><path d="M 72 144 L 148 144 L 148 148.441406 L 72 148.441406 Z M 72 144 " clip-rule="nonzero"/></clipPath></defs><path fill="#ffddb1" d="M 186.140625 76.929688 C 186.140625 78.089844 186.113281 79.25 186.058594 80.410156 C 186 81.566406 185.914062 82.722656 185.800781 83.878906 C 185.6875 85.035156 185.546875 86.183594 185.375 87.332031 C 185.203125 88.480469 185.007812 89.625 184.78125 90.761719 C 184.554688 91.898438 184.300781 93.03125 184.015625 94.15625 C 183.734375 95.28125 183.425781 96.398438 183.089844 97.511719 C 182.753906 98.621094 182.386719 99.722656 181.996094 100.8125 C 181.605469 101.90625 181.1875 102.988281 180.746094 104.058594 C 180.300781 105.132812 179.832031 106.191406 179.335938 107.242188 C 178.839844 108.289062 178.316406 109.328125 177.769531 110.351562 C 177.222656 111.371094 176.652344 112.382812 176.054688 113.378906 C 175.457031 114.371094 174.835938 115.351562 174.191406 116.316406 C 173.546875 117.28125 172.878906 118.230469 172.1875 119.160156 C 171.496094 120.09375 170.785156 121.007812 170.046875 121.90625 C 169.3125 122.800781 168.554688 123.679688 167.773438 124.539062 C 166.996094 125.398438 166.195312 126.238281 165.375 127.058594 C 164.554688 127.878906 163.714844 128.679688 162.855469 129.460938 C 161.996094 130.238281 161.117188 130.996094 160.21875 131.730469 C 159.320312 132.46875 158.40625 133.183594 157.476562 133.875 C 156.542969 134.5625 155.59375 135.230469 154.628906 135.875 C 153.664062 136.519531 152.683594 137.140625 151.691406 137.738281 C 150.695312 138.335938 149.683594 138.90625 148.660156 139.453125 C 147.636719 140 146.601562 140.523438 145.554688 141.019531 C 144.503906 141.515625 143.445312 141.984375 142.371094 142.429688 C 141.300781 142.871094 140.21875 143.289062 139.125 143.679688 C 138.03125 144.070312 136.929688 144.433594 135.820312 144.773438 C 134.710938 145.109375 133.589844 145.417969 132.464844 145.699219 C 131.339844 145.980469 130.207031 146.234375 129.070312 146.460938 C 127.933594 146.6875 126.789062 146.886719 125.640625 147.058594 C 124.492188 147.226562 123.34375 147.371094 122.1875 147.484375 C 121.03125 147.597656 119.875 147.683594 118.714844 147.738281 C 117.558594 147.796875 116.398438 147.824219 115.238281 147.824219 C 114.078125 147.824219 112.917969 147.796875 111.757812 147.738281 C 110.597656 147.683594 109.441406 147.597656 108.289062 147.484375 C 107.132812 147.371094 105.980469 147.226562 104.832031 147.058594 C 103.6875 146.886719 102.542969 146.6875 101.40625 146.460938 C 100.265625 146.234375 99.132812 145.980469 98.007812 145.699219 C 96.882812 145.417969 95.765625 145.109375 94.65625 144.773438 C 93.542969 144.433594 92.441406 144.070312 91.351562 143.679688 C 90.257812 143.289062 89.175781 142.871094 88.101562 142.429688 C 87.03125 141.984375 85.96875 141.515625 84.921875 141.019531 C 83.871094 140.523438 82.835938 140 81.8125 139.453125 C 80.789062 138.90625 79.78125 138.335938 78.785156 137.738281 C 77.789062 137.140625 76.808594 136.519531 75.84375 135.875 C 74.878906 135.230469 73.929688 134.5625 73 133.875 C 72.066406 133.183594 71.152344 132.46875 70.253906 131.730469 C 69.359375 130.996094 68.480469 130.238281 67.621094 129.460938 C 66.761719 128.679688 65.921875 127.878906 65.101562 127.058594 C 64.28125 126.238281 63.480469 125.398438 62.699219 124.539062 C 61.921875 123.679688 61.164062 122.800781 60.425781 121.90625 C 59.691406 121.007812 58.976562 120.09375 58.285156 119.160156 C 57.59375 118.230469 56.925781 117.28125 56.28125 116.316406 C 55.636719 115.351562 55.015625 114.371094 54.421875 113.378906 C 53.824219 112.382812 53.25 111.371094 52.703125 110.351562 C 52.15625 109.328125 51.636719 108.289062 51.140625 107.242188 C 50.644531 106.191406 50.175781 105.132812 49.730469 104.058594 C 49.285156 102.988281 48.867188 101.90625 48.476562 100.8125 C 48.085938 99.722656 47.722656 98.621094 47.386719 97.511719 C 47.050781 96.398438 46.738281 95.28125 46.457031 94.15625 C 46.175781 93.03125 45.921875 91.898438 45.695312 90.761719 C 45.46875 89.625 45.269531 88.480469 45.101562 87.332031 C 44.929688 86.183594 44.789062 85.035156 44.675781 83.878906 C 44.558594 82.722656 44.476562 81.566406 44.417969 80.410156 C 44.359375 79.25 44.332031 78.089844 44.332031 76.929688 C 44.332031 75.769531 44.359375 74.609375 44.417969 73.453125 C 44.476562 72.292969 44.558594 71.136719 44.675781 69.980469 C 44.789062 68.828125 44.929688 67.675781 45.101562 66.527344 C 45.269531 65.378906 45.46875 64.238281 45.695312 63.101562 C 45.921875 61.960938 46.175781 60.828125 46.457031 59.703125 C 46.738281 58.578125 47.050781 57.460938 47.386719 56.351562 C 47.722656 55.242188 48.085938 54.140625 48.476562 53.046875 C 48.867188 51.953125 49.285156 50.871094 49.730469 49.800781 C 50.175781 48.726562 50.644531 47.667969 51.140625 46.621094 C 51.636719 45.570312 52.15625 44.535156 52.703125 43.511719 C 53.25 42.488281 53.824219 41.480469 54.421875 40.484375 C 55.015625 39.488281 55.636719 38.507812 56.28125 37.542969 C 56.925781 36.578125 57.59375 35.628906 58.285156 34.699219 C 58.976562 33.765625 59.691406 32.851562 60.425781 31.957031 C 61.164062 31.058594 61.921875 30.179688 62.699219 29.320312 C 63.480469 28.460938 64.28125 27.621094 65.101562 26.800781 C 65.921875 25.980469 66.761719 25.179688 67.621094 24.402344 C 68.480469 23.621094 69.359375 22.863281 70.253906 22.128906 C 71.152344 21.390625 72.066406 20.679688 73 19.988281 C 73.929688 19.296875 74.878906 18.628906 75.84375 17.984375 C 76.808594 17.339844 77.789062 16.71875 78.785156 16.121094 C 79.78125 15.527344 80.789062 14.953125 81.8125 14.40625 C 82.835938 13.859375 83.871094 13.339844 84.921875 12.84375 C 85.96875 12.347656 87.03125 11.875 88.101562 11.433594 C 89.175781 10.988281 90.257812 10.570312 91.351562 10.179688 C 92.441406 9.789062 93.542969 9.425781 94.65625 9.089844 C 95.765625 8.753906 96.882812 8.441406 98.007812 8.160156 C 99.132812 7.878906 100.265625 7.625 101.40625 7.398438 C 102.542969 7.171875 103.6875 6.972656 104.832031 6.804688 C 105.980469 6.632812 107.132812 6.492188 108.289062 6.378906 C 109.441406 6.265625 110.597656 6.179688 111.757812 6.121094 C 112.917969 6.066406 114.078125 6.035156 115.238281 6.035156 C 116.398438 6.035156 117.558594 6.066406 118.714844 6.121094 C 119.875 6.179688 121.03125 6.265625 122.1875 6.378906 C 123.34375 6.492188 124.492188 6.632812 125.640625 6.804688 C 126.789062 6.972656 127.933594 7.171875 129.070312 7.398438 C 130.207031 7.625 131.339844 7.878906 132.464844 8.160156 C 133.589844 8.441406 134.710938 8.753906 135.820312 9.089844 C 136.929688 9.425781 138.03125 9.789062 139.125 10.179688 C 140.21875 10.570312 141.300781 10.988281 142.371094 11.433594 C 143.445312 11.875 144.503906 12.347656 145.554688 12.84375 C 146.601562 13.339844 147.636719 13.859375 148.660156 14.40625 C 149.683594 14.953125 150.695312 15.527344 151.691406 16.121094 C 152.683594 16.71875 153.664062 17.339844 154.628906 17.984375 C 155.59375 18.628906 156.542969 19.296875 157.476562 19.988281 C 158.40625 20.679688 159.320312 21.390625 160.21875 22.128906 C 161.117188 22.863281 161.996094 23.621094 162.855469 24.402344 C 163.714844 25.179688 164.554688 25.980469 165.375 26.800781 C 166.195312 27.621094 166.996094 28.460938 167.773438 29.320312 C 168.554688 30.179688 169.3125 31.058594 170.046875 31.957031 C 170.785156 32.851562 171.496094 33.765625 172.1875 34.699219 C 172.878906 35.628906 173.546875 36.578125 174.191406 37.542969 C 174.835938 38.507812 175.457031 39.488281 176.054688 40.484375 C 176.652344 41.480469 177.222656 42.488281 177.769531 43.511719 C 178.316406 44.535156 178.839844 45.570312 179.335938 46.621094 C 179.832031 47.667969 180.300781 48.726562 180.746094 49.800781 C 181.1875 50.871094 181.605469 51.953125 181.996094 53.046875 C 182.386719 54.140625 182.753906 55.242188 183.089844 56.351562 C 183.425781 57.460938 183.734375 58.578125 184.015625 59.703125 C 184.300781 60.828125 184.554688 61.960938 184.78125 63.101562 C 185.007812 64.238281 185.203125 65.378906 185.375 66.527344 C 185.546875 67.675781 185.6875 68.828125 185.800781 69.980469 C 185.914062 71.136719 186 72.292969 186.058594 73.453125 C 186.113281 74.609375 186.140625 75.769531 186.140625 76.929688 Z M 186.140625 76.929688 " fill-opacity="1" fill-rule="nonzero"/><path fill="#ffffff" d="M 165.058594 114.53125 L 164.050781 116.414062 L 162.167969 117.390625 L 164.050781 118.398438 L 165.058594 120.277344 L 166.066406 118.398438 L 167.921875 117.390625 L 166.066406 116.414062 Z M 79.152344 98.894531 L 78.144531 100.773438 L 76.261719 101.75 L 78.144531 102.757812 L 79.152344 104.636719 L 80.160156 102.757812 L 82.015625 101.75 L 80.160156 100.773438 Z M 59.195312 98.78125 L 57.484375 101.949219 L 54.28125 103.714844 L 57.484375 105.421875 L 59.195312 108.699219 L 60.960938 105.421875 L 64.214844 103.714844 L 60.960938 101.949219 Z M 91.621094 91.441406 L 90.21875 93.988281 L 87.640625 95.421875 L 90.21875 96.792969 L 91.621094 99.367188 L 93.019531 96.792969 L 95.609375 95.421875 L 93.027344 93.988281 Z M 142.351562 80.3125 L 140.75 83.253906 L 137.75 84.90625 L 140.75 86.503906 L 142.351562 89.527344 L 144.007812 86.503906 L 147.035156 84.90625 L 144.007812 83.253906 Z M 95.324219 66.332031 L 94.320312 68.210938 L 92.433594 69.191406 L 94.320312 70.195312 L 95.324219 72.074219 L 96.332031 70.195312 L 98.1875 69.191406 L 96.332031 68.210938 Z M 146.167969 61.253906 L 144.765625 63.804688 L 142.1875 65.238281 L 144.765625 66.605469 L 146.167969 69.183594 L 147.566406 66.605469 L 150.148438 65.238281 L 147.566406 63.804688 Z M 92.042969 47.414062 L 89.964844 51.25 L 86.058594 53.378906 L 89.964844 55.449219 L 92.042969 59.402344 L 94.171875 55.449219 L 98.132812 53.378906 L 94.171875 51.25 Z M 61.160156 47.046875 L 59.503906 50.070312 L 56.414062 51.78125 L 59.503906 53.40625 L 61.160156 56.546875 L 62.84375 53.40625 L 65.960938 51.78125 L 62.84375 50.070312 Z M 169.019531 45.339844 L 168.011719 47.21875 L 166.128906 48.199219 L 168.011719 49.203125 L 169.019531 51.082031 L 170.023438 49.203125 L 171.882812 48.199219 L 170.023438 47.21875 Z M 132.636719 36.546875 L 131.628906 38.425781 L 129.746094 39.402344 L 131.628906 40.410156 L 132.636719 42.289062 L 133.644531 40.410156 L 135.5 39.402344 L 133.644531 38.425781 Z M 74.945312 32.929688 L 73.453125 35.707031 L 70.703125 37.160156 L 73.453125 38.617188 L 74.945312 41.394531 L 76.433594 38.617188 L 79.1875 37.160156 L 76.429688 35.707031 Z M 160.035156 25.617188 L 158.800781 27.945312 L 156.441406 29.203125 L 158.800781 30.4375 L 160.035156 32.820312 L 161.296875 30.4375 L 163.683594 29.203125 L 161.296875 27.945312 Z M 140.632812 18.804688 L 138.585938 22.785156 L 134.625 24.886719 L 138.585938 27.042969 L 140.632812 30.878906 L 142.820312 27.042969 L 146.726562 24.886719 L 142.820312 22.785156 Z M 140.632812 18.804688 " fill-opacity="1" fill-rule="nonzero"/><path fill="#ffffff" d="M 101.921875 77.992188 L 101.921875 85.753906 L 88.949219 85.753906 C 88.949219 84.636719 88.949219 79.914062 88.949219 78.046875 L 94.367188 82.054688 C 94.582031 82.210938 94.863281 82.246094 95.097656 82.109375 Z M 90.074219 77.234375 L 100.578125 77.234375 L 94.792969 80.738281 Z M 88.28125 75.917969 C 87.914062 75.917969 87.632812 76.226562 87.632812 76.59375 C 87.632812 76.902344 87.632812 86.125 87.632812 86.425781 C 87.632812 86.792969 87.914062 87.074219 88.28125 87.074219 L 102.570312 87.074219 C 102.9375 87.074219 103.246094 86.792969 103.246094 86.425781 L 103.246094 76.59375 C 103.246094 76.226562 102.9375 75.917969 102.570312 75.917969 Z M 159.054688 41.113281 L 159.054688 51.648438 L 141.484375 51.648438 C 141.484375 50.132812 141.484375 43.722656 141.484375 41.195312 L 148.835938 46.628906 C 149.128906 46.839844 149.507812 46.875 149.816406 46.683594 Z M 142.992188 40.097656 L 157.226562 40.097656 L 149.394531 44.835938 Z M 140.578125 38.308594 C 140.082031 38.308594 139.683594 38.707031 139.683594 39.203125 C 139.683594 39.625 139.683594 52.125 139.683594 52.542969 C 139.683594 53.039062 140.082031 53.4375 140.578125 53.4375 L 159.953125 53.4375 C 160.449219 53.4375 160.847656 53.039062 160.847656 52.542969 L 160.847656 39.203125 C 160.847656 38.707031 160.449219 38.308594 159.953125 38.308594 Z M 140.578125 38.308594 " fill-opacity="1" fill-rule="nonzero"/><g clip-path="url(#ee75c14d4b)"><path fill="#175d87" d="M 191.269531 85.230469 C 191.269531 86.164062 191.234375 87.097656 191.167969 88.027344 C 191.101562 88.957031 191.003906 89.882812 190.871094 90.800781 C 190.738281 91.71875 190.574219 92.621094 190.375 93.519531 C 190.179688 94.414062 189.953125 95.292969 189.691406 96.15625 C 189.433594 97.019531 189.144531 97.863281 188.824219 98.6875 C 188.503906 99.515625 188.15625 100.316406 187.777344 101.09375 C 187.402344 101.871094 187 102.621094 186.570312 103.34375 C 186.136719 104.066406 185.683594 104.757812 185.203125 105.417969 C 184.722656 106.082031 184.222656 106.707031 183.699219 107.300781 C 183.175781 107.894531 182.628906 108.449219 182.066406 108.96875 C 181.503906 109.488281 180.921875 109.96875 180.324219 110.410156 C 179.726562 110.851562 179.113281 111.25 178.488281 111.609375 C 177.859375 111.96875 177.222656 112.28125 176.574219 112.554688 C 175.925781 112.824219 175.269531 113.050781 174.601562 113.234375 C 173.9375 113.417969 173.269531 113.554688 172.59375 113.644531 C 171.917969 113.738281 171.242188 113.78125 170.5625 113.78125 C 169.886719 113.78125 169.207031 113.738281 168.535156 113.644531 C 167.859375 113.554688 167.1875 113.417969 166.523438 113.234375 C 165.859375 113.050781 165.203125 112.824219 164.554688 112.554688 C 163.902344 112.28125 163.265625 111.96875 162.640625 111.609375 C 162.011719 111.25 161.402344 110.851562 160.804688 110.410156 C 160.203125 109.96875 159.625 109.488281 159.058594 108.96875 C 158.496094 108.449219 157.953125 107.894531 157.429688 107.300781 C 156.902344 106.707031 156.402344 106.082031 155.921875 105.417969 C 155.441406 104.757812 154.988281 104.066406 154.558594 103.34375 C 154.128906 102.621094 153.722656 101.871094 153.347656 101.09375 C 152.972656 100.316406 152.621094 99.515625 152.304688 98.6875 C 151.984375 97.863281 151.695312 97.019531 151.433594 96.15625 C 151.175781 95.292969 150.945312 94.414062 150.75 93.519531 C 150.554688 92.621094 150.386719 91.71875 150.257812 90.800781 C 150.125 89.882812 150.023438 88.957031 149.957031 88.027344 C 149.890625 87.097656 149.859375 86.164062 149.859375 85.230469 C 149.859375 84.292969 149.890625 83.359375 149.957031 82.429688 C 150.023438 81.5 150.125 80.574219 150.257812 79.660156 C 150.386719 78.742188 150.554688 77.835938 150.75 76.941406 C 150.945312 76.046875 151.175781 75.167969 151.433594 74.300781 C 151.695312 73.4375 151.984375 72.59375 152.304688 71.769531 C 152.621094 70.945312 152.972656 70.144531 153.347656 69.367188 C 153.722656 68.589844 154.128906 67.839844 154.558594 67.113281 C 154.988281 66.390625 155.441406 65.699219 155.921875 65.039062 C 156.402344 64.378906 156.902344 63.75 157.429688 63.15625 C 157.953125 62.5625 158.496094 62.007812 159.058594 61.488281 C 159.625 60.96875 160.203125 60.488281 160.804688 60.046875 C 161.402344 59.605469 162.011719 59.207031 162.640625 58.847656 C 163.265625 58.492188 163.902344 58.175781 164.554688 57.90625 C 165.203125 57.632812 165.859375 57.40625 166.523438 57.222656 C 167.1875 57.042969 167.859375 56.90625 168.535156 56.8125 C 169.207031 56.722656 169.886719 56.675781 170.5625 56.675781 C 171.242188 56.675781 171.917969 56.722656 172.59375 56.8125 C 173.269531 56.90625 173.9375 57.042969 174.601562 57.222656 C 175.269531 57.40625 175.925781 57.632812 176.574219 57.90625 C 177.222656 58.175781 177.859375 58.492188 178.488281 58.847656 C 179.113281 59.207031 179.726562 59.605469 180.324219 60.046875 C 180.921875 60.488281 181.503906 60.96875 182.066406 61.488281 C 182.628906 62.007812 183.175781 62.5625 183.699219 63.15625 C 184.222656 63.75 184.722656 64.378906 185.203125 65.039062 C 185.683594 65.699219 186.136719 66.390625 186.570312 67.113281 C 187 67.839844 187.402344 68.589844 187.777344 69.367188 C 188.15625 70.144531 188.503906 70.945312 188.824219 71.769531 C 189.144531 72.59375 189.433594 73.4375 189.691406 74.300781 C 189.953125 75.167969 190.179688 76.046875 190.375 76.941406 C 190.574219 77.835938 190.738281 78.742188 190.871094 79.660156 C 191.003906 80.574219 191.101562 81.5 191.167969 82.429688 C 191.234375 83.359375 191.269531 84.292969 191.269531 85.230469 Z M 191.269531 85.230469 " fill-opacity="1" fill-rule="nonzero"/></g><path fill="#308cc4" d="M 187.605469 85.085938 C 187.605469 85.992188 187.574219 86.894531 187.515625 87.796875 C 187.453125 88.699219 187.363281 89.59375 187.242188 90.484375 C 187.121094 91.371094 186.96875 92.25 186.789062 93.117188 C 186.609375 93.984375 186.402344 94.835938 186.164062 95.675781 C 185.929688 96.511719 185.664062 97.328125 185.371094 98.128906 C 185.078125 98.929688 184.761719 99.703125 184.417969 100.457031 C 184.074219 101.210938 183.707031 101.9375 183.3125 102.640625 C 182.917969 103.339844 182.503906 104.011719 182.066406 104.652344 C 181.628906 105.292969 181.167969 105.898438 180.691406 106.476562 C 180.210938 107.050781 179.714844 107.589844 179.199219 108.09375 C 178.683594 108.597656 178.15625 109.0625 177.609375 109.488281 C 177.0625 109.917969 176.503906 110.304688 175.929688 110.648438 C 175.359375 110.996094 174.777344 111.300781 174.183594 111.566406 C 173.589844 111.828125 172.992188 112.046875 172.382812 112.222656 C 171.777344 112.402344 171.164062 112.535156 170.546875 112.621094 C 169.929688 112.710938 169.3125 112.757812 168.695312 112.757812 C 168.074219 112.757812 167.457031 112.710938 166.839844 112.621094 C 166.222656 112.535156 165.613281 112.402344 165.003906 112.222656 C 164.398438 112.046875 163.796875 111.828125 163.203125 111.566406 C 162.613281 111.300781 162.027344 110.996094 161.457031 110.648438 C 160.882812 110.304688 160.324219 109.917969 159.777344 109.488281 C 159.234375 109.0625 158.703125 108.597656 158.1875 108.09375 C 157.671875 107.589844 157.175781 107.050781 156.695312 106.476562 C 156.21875 105.898438 155.757812 105.292969 155.320312 104.652344 C 154.882812 104.011719 154.46875 103.339844 154.074219 102.640625 C 153.683594 101.9375 153.3125 101.210938 152.96875 100.457031 C 152.625 99.703125 152.308594 98.929688 152.015625 98.128906 C 151.722656 97.328125 151.460938 96.511719 151.222656 95.675781 C 150.984375 94.835938 150.777344 93.984375 150.597656 93.117188 C 150.417969 92.25 150.265625 91.371094 150.144531 90.484375 C 150.023438 89.59375 149.933594 88.699219 149.875 87.796875 C 149.8125 86.894531 149.78125 85.992188 149.78125 85.085938 C 149.78125 84.179688 149.8125 83.273438 149.875 82.371094 C 149.933594 81.46875 150.023438 80.574219 150.144531 79.6875 C 150.265625 78.796875 150.417969 77.917969 150.597656 77.050781 C 150.777344 76.183594 150.984375 75.332031 151.222656 74.496094 C 151.460938 73.65625 151.722656 72.839844 152.015625 72.039062 C 152.308594 71.242188 152.625 70.464844 152.96875 69.710938 C 153.3125 68.957031 153.683594 68.230469 154.074219 67.53125 C 154.46875 66.828125 154.882812 66.160156 155.320312 65.519531 C 155.757812 64.875 156.21875 64.269531 156.695312 63.695312 C 157.175781 63.117188 157.671875 62.578125 158.1875 62.078125 C 158.703125 61.574219 159.234375 61.109375 159.777344 60.679688 C 160.324219 60.253906 160.882812 59.867188 161.457031 59.519531 C 162.027344 59.171875 162.613281 58.867188 163.203125 58.605469 C 163.796875 58.339844 164.398438 58.121094 165.003906 57.945312 C 165.613281 57.769531 166.222656 57.636719 166.839844 57.546875 C 167.457031 57.457031 168.074219 57.414062 168.695312 57.414062 C 169.3125 57.414062 169.929688 57.457031 170.546875 57.546875 C 171.164062 57.636719 171.777344 57.769531 172.382812 57.945312 C 172.992188 58.121094 173.589844 58.339844 174.183594 58.605469 C 174.777344 58.867188 175.359375 59.171875 175.929688 59.519531 C 176.503906 59.867188 177.0625 60.253906 177.609375 60.679688 C 178.15625 61.109375 178.683594 61.574219 179.199219 62.078125 C 179.714844 62.578125 180.210938 63.117188 180.691406 63.695312 C 181.167969 64.269531 181.628906 64.875 182.066406 65.519531 C 182.503906 66.160156 182.917969 66.828125 183.3125 67.53125 C 183.707031 68.230469 184.074219 68.957031 184.417969 69.710938 C 184.761719 70.464844 185.078125 71.242188 185.371094 72.039062 C 185.664062 72.839844 185.929688 73.65625 186.164062 74.496094 C 186.402344 75.332031 186.609375 76.183594 186.789062 77.050781 C 186.96875 77.917969 187.121094 78.796875 187.242188 79.6875 C 187.363281 80.574219 187.453125 81.46875 187.515625 82.371094 C 187.574219 83.273438 187.605469 84.179688 187.605469 85.085938 Z M 187.605469 85.085938 " fill-opacity="1" fill-rule="nonzero"/><path fill="#ffffff" d="M 165.691406 93.664062 C 167.21875 94.058594 168.113281 96.207031 167.507812 98.554688 C 166.898438 100.902344 165.070312 102.351562 163.546875 101.957031 C 162.023438 101.566406 161.117188 99.417969 161.726562 97.066406 C 162.339844 94.726562 164.175781 93.28125 165.691406 93.664062 Z M 174.953125 71.3125 C 174.992188 71.339844 175.042969 71.359375 175.082031 71.386719 C 182.058594 75.789062 181.710938 84.347656 179.421875 91.34375 C 178.78125 93.308594 177.917969 95.222656 176.753906 96.9375 C 174.578125 100.140625 171.316406 102.179688 167.546875 102.410156 C 168.402344 101.550781 169.078125 100.402344 169.433594 99.058594 C 169.730469 97.921875 169.742188 96.792969 169.542969 95.765625 C 172.058594 95.945312 174.476562 94.519531 175.828125 92.316406 C 178.496094 87.96875 179.320312 80.414062 173.585938 78.148438 C 173.542969 78.136719 173.503906 78.121094 173.46875 78.109375 C 174.136719 77.300781 174.675781 76.3125 174.964844 75.167969 C 175.316406 73.816406 175.28125 72.480469 174.953125 71.3125 Z M 171.238281 69.746094 C 172.765625 70.140625 173.65625 72.324219 173.046875 74.664062 C 172.441406 77.011719 170.613281 78.460938 169.085938 78.066406 C 167.5625 77.675781 166.660156 75.527344 167.265625 73.175781 C 167.871094 70.835938 169.714844 69.363281 171.238281 69.746094 Z M 171.734375 67.824219 C 169.011719 67.125 166.195312 69.375 165.339844 72.679688 C 164.484375 75.988281 165.863281 79.285156 168.589844 79.988281 C 169.625 80.257812 170.660156 80.097656 171.605469 79.625 C 173.6875 79.828125 175.40625 81.441406 175.808594 83.480469 C 176.296875 85.992188 175.398438 89.457031 173.972656 91.566406 C 172.847656 93.230469 170.707031 94.332031 168.714844 93.609375 C 168.113281 92.695312 167.265625 92.011719 166.195312 91.738281 C 163.472656 91.035156 160.664062 93.257812 159.808594 96.566406 C 159.035156 99.554688 160.097656 102.515625 162.3125 103.582031 C 162.4375 103.636719 162.574219 103.699219 162.683594 103.742188 C 163.933594 104.1875 165.222656 104.359375 166.542969 104.386719 C 171.742188 104.5 176.179688 101.675781 178.871094 97.308594 C 179.90625 95.628906 180.671875 93.804688 181.285156 91.9375 C 183.445312 85.339844 184.085938 76.847656 178.574219 71.632812 C 177.59375 70.703125 176.515625 69.917969 175.335938 69.265625 C 174.289062 68.6875 173.207031 68.183594 172.027344 67.894531 C 171.921875 67.875 171.8125 67.847656 171.734375 67.824219 Z M 171.734375 67.824219 " fill-opacity="1" fill-rule="nonzero"/><path fill="#94d1f3" d="M 170.480469 106.179688 C 168.941406 106.46875 167.90625 107.894531 168.175781 109.347656 C 168.453125 110.792969 169.921875 111.738281 171.460938 111.449219 C 173 111.160156 174.007812 109.734375 173.738281 108.28125 C 173.460938 106.832031 172.019531 105.890625 170.480469 106.179688 Z M 176.765625 104.023438 C 175.890625 104.023438 175.164062 104.855469 175.164062 105.875 C 175.164062 106.886719 175.890625 107.695312 176.765625 107.695312 C 177.640625 107.695312 178.339844 106.886719 178.339844 105.875 C 178.339844 104.855469 177.640625 104.023438 176.765625 104.023438 Z M 156.21875 76.394531 C 154.796875 76.078125 153.28125 77.460938 152.824219 79.507812 C 152.371094 81.542969 153.148438 83.480469 154.5625 83.796875 C 155.984375 84.113281 157.503906 82.703125 157.957031 80.65625 C 158.414062 78.609375 157.632812 76.710938 156.21875 76.394531 Z M 160.566406 63.785156 C 159.027344 63.914062 157.289062 65.214844 156.210938 67.226562 C 154.777344 69.914062 155.039062 72.847656 156.800781 73.78125 C 158.566406 74.71875 161.179688 73.300781 162.609375 70.613281 C 164.042969 67.929688 163.753906 64.996094 161.988281 64.058594 C 161.558594 63.824219 161.082031 63.734375 160.566406 63.785156 Z M 160.566406 63.785156 " fill-opacity="1" fill-rule="nonzero"/><g clip-path="url(#92f61dcefe)"><path fill="#436630" d="M 33.851562 64.933594 C 33.851562 62.453125 35.859375 60.449219 38.34375 60.449219 L 76.792969 60.449219 C 79.277344 60.449219 81.285156 62.453125 81.285156 64.933594 L 81.285156 92.734375 C 81.285156 95.214844 79.277344 97.21875 76.792969 97.21875 L 38.34375 97.21875 C 35.859375 97.21875 33.851562 95.214844 33.851562 92.734375 Z M 33.851562 64.933594 " fill-opacity="1" fill-rule="nonzero"/></g><path fill="#679f42" d="M 38.300781 64.933594 C 38.300781 62.453125 40.308594 60.449219 42.792969 60.449219 L 81.246094 60.449219 C 83.726562 60.449219 85.734375 62.453125 85.734375 64.933594 L 85.734375 92.734375 C 85.734375 95.214844 83.726562 97.21875 81.246094 97.21875 L 42.800781 97.21875 C 40.316406 97.21875 38.308594 95.214844 38.308594 92.734375 L 38.308594 64.933594 Z M 38.300781 64.933594 " fill-opacity="1" fill-rule="nonzero"/><path fill="#b3d88e" d="M 53.550781 91.359375 C 52.585938 91.359375 51.785156 92.082031 51.785156 92.984375 C 51.785156 93.886719 52.585938 94.636719 53.550781 94.636719 C 54.515625 94.636719 55.289062 93.886719 55.289062 92.984375 C 55.296875 92.082031 54.523438 91.359375 53.550781 91.359375 Z M 44.792969 88.949219 C 43.339844 88.949219 42.160156 90.269531 42.160156 91.890625 C 42.160156 93.507812 43.347656 94.800781 44.792969 94.800781 C 46.242188 94.800781 47.429688 93.507812 47.429688 91.890625 C 47.429688 90.269531 46.25 88.949219 44.792969 88.949219 Z M 81.679688 74.988281 C 80.65625 74.988281 79.855469 76.324219 79.855469 77.984375 C 79.855469 79.644531 80.664062 80.980469 81.679688 80.980469 C 82.699219 80.980469 83.535156 79.644531 83.535156 77.984375 C 83.535156 76.332031 82.699219 74.988281 81.679688 74.988281 Z M 79.996094 62.578125 C 78.179688 62.578125 76.710938 64.796875 76.710938 67.535156 C 76.710938 70.285156 78.179688 72.523438 79.996094 72.523438 C 81.808594 72.523438 83.28125 70.277344 83.28125 67.535156 C 83.28125 64.789062 81.808594 62.578125 79.996094 62.578125 Z M 79.996094 62.578125 " fill-opacity="1" fill-rule="nonzero"/><path fill="#ffffff" d="M 66.042969 77.316406 C 65.113281 77.316406 64.363281 78.136719 64.363281 79.167969 C 64.363281 80.203125 65.113281 81.046875 66.042969 81.046875 C 66.976562 81.046875 67.726562 80.203125 67.726562 79.167969 C 67.726562 78.136719 66.976562 77.316406 66.042969 77.316406 Z M 60.347656 76.980469 C 59.367188 76.980469 58.578125 77.824219 58.578125 78.914062 C 58.578125 79.996094 59.367188 80.875 60.347656 80.875 C 61.324219 80.875 62.113281 79.996094 62.113281 78.914062 C 62.113281 77.832031 61.324219 76.980469 60.347656 76.980469 Z M 54.648438 76.730469 C 53.625 76.730469 52.792969 77.648438 52.792969 78.777344 C 52.792969 79.90625 53.625 80.820312 54.648438 80.820312 C 55.667969 80.820312 56.503906 79.90625 56.503906 78.777344 C 56.496094 77.648438 55.667969 76.730469 54.648438 76.730469 Z M 49.929688 72.300781 L 70.171875 73.34375 L 70.171875 76.089844 C 70.171875 76.40625 70.351562 76.683594 70.621094 76.847656 L 73.316406 78.445312 L 70.589844 80.234375 C 70.34375 80.402344 70.171875 80.664062 70.171875 80.964844 L 70.171875 83.742188 L 49.84375 85.160156 C 49.851562 83.355469 49.921875 74.105469 49.929688 72.300781 Z M 49.058594 70.449219 C 48.546875 70.421875 48.132812 70.835938 48.132812 71.34375 C 48.132812 71.804688 48.050781 85.648438 48.050781 86.109375 C 48.050781 86.632812 48.484375 87.039062 49.003906 87.007812 L 71.121094 85.464844 C 71.59375 85.429688 71.964844 85.035156 71.964844 84.566406 L 71.964844 81.457031 L 75.476562 79.128906 C 76.027344 78.761719 76.019531 77.949219 75.449219 77.613281 L 71.964844 75.539062 L 71.964844 72.515625 C 71.964844 72.039062 71.597656 71.640625 71.121094 71.621094 Z M 49.058594 70.449219 " fill-opacity="1" fill-rule="nonzero"/><g clip-path="url(#0d751ab624)"><path fill="#b83648" d="M 127.277344 22.476562 C 127.277344 23.160156 127.242188 23.847656 127.171875 24.527344 C 127.101562 25.210938 126.996094 25.890625 126.855469 26.5625 C 126.714844 27.234375 126.539062 27.898438 126.332031 28.558594 C 126.125 29.214844 125.882812 29.859375 125.605469 30.492188 C 125.332031 31.125 125.027344 31.746094 124.6875 32.351562 C 124.347656 32.957031 123.980469 33.542969 123.582031 34.113281 C 123.179688 34.683594 122.753906 35.234375 122.296875 35.765625 C 121.84375 36.296875 121.359375 36.804688 120.851562 37.289062 C 120.34375 37.773438 119.8125 38.234375 119.257812 38.671875 C 118.703125 39.105469 118.125 39.511719 117.527344 39.894531 C 116.933594 40.277344 116.316406 40.628906 115.683594 40.953125 C 115.050781 41.273438 114.402344 41.566406 113.738281 41.832031 C 113.074219 42.09375 112.398438 42.324219 111.710938 42.523438 C 111.023438 42.722656 110.328125 42.890625 109.621094 43.023438 C 108.917969 43.15625 108.207031 43.257812 107.492188 43.324219 C 106.777344 43.390625 106.0625 43.425781 105.34375 43.425781 C 104.625 43.425781 103.910156 43.390625 103.195312 43.324219 C 102.480469 43.257812 101.769531 43.15625 101.066406 43.023438 C 100.359375 42.890625 99.664062 42.722656 98.976562 42.523438 C 98.289062 42.324219 97.613281 42.09375 96.949219 41.832031 C 96.285156 41.566406 95.636719 41.273438 95.003906 40.953125 C 94.371094 40.628906 93.753906 40.277344 93.160156 39.894531 C 92.5625 39.511719 91.984375 39.105469 91.429688 38.671875 C 90.875 38.234375 90.34375 37.773438 89.835938 37.289062 C 89.328125 36.804688 88.84375 36.296875 88.390625 35.765625 C 87.933594 35.234375 87.507812 34.683594 87.105469 34.113281 C 86.707031 33.542969 86.339844 32.957031 86 32.351562 C 85.660156 31.746094 85.355469 31.125 85.082031 30.492188 C 84.804688 29.859375 84.5625 29.214844 84.355469 28.558594 C 84.144531 27.898438 83.972656 27.234375 83.832031 26.5625 C 83.691406 25.890625 83.585938 25.210938 83.515625 24.527344 C 83.445312 23.847656 83.410156 23.160156 83.410156 22.476562 C 83.410156 21.789062 83.445312 21.105469 83.515625 20.421875 C 83.585938 19.738281 83.691406 19.0625 83.832031 18.386719 C 83.972656 17.714844 84.144531 17.050781 84.355469 16.394531 C 84.5625 15.738281 84.804688 15.09375 85.082031 14.457031 C 85.355469 13.824219 85.660156 13.203125 86 12.597656 C 86.339844 11.996094 86.707031 11.40625 87.105469 10.835938 C 87.507812 10.265625 87.933594 9.714844 88.390625 9.183594 C 88.84375 8.65625 89.328125 8.148438 89.835938 7.660156 C 90.34375 7.175781 90.875 6.714844 91.429688 6.28125 C 91.984375 5.84375 92.5625 5.4375 93.160156 5.054688 C 93.753906 4.675781 94.371094 4.324219 95.003906 4 C 95.636719 3.675781 96.285156 3.382812 96.949219 3.121094 C 97.613281 2.859375 98.289062 2.625 98.976562 2.425781 C 99.664062 2.226562 100.359375 2.0625 101.066406 1.929688 C 101.769531 1.792969 102.480469 1.695312 103.195312 1.625 C 103.910156 1.558594 104.625 1.523438 105.34375 1.523438 C 106.0625 1.523438 106.777344 1.558594 107.492188 1.625 C 108.207031 1.695312 108.917969 1.792969 109.621094 1.929688 C 110.328125 2.0625 111.023438 2.226562 111.710938 2.425781 C 112.398438 2.625 113.074219 2.859375 113.738281 3.121094 C 114.402344 3.382812 115.050781 3.675781 115.683594 4 C 116.316406 4.324219 116.933594 4.675781 117.527344 5.054688 C 118.125 5.4375 118.703125 5.84375 119.257812 6.28125 C 119.8125 6.714844 120.34375 7.175781 120.851562 7.660156 C 121.359375 8.148438 121.84375 8.65625 122.296875 9.183594 C 122.753906 9.714844 123.179688 10.265625 123.582031 10.835938 C 123.980469 11.40625 124.347656 11.996094 124.6875 12.597656 C 125.027344 13.203125 125.332031 13.824219 125.605469 14.457031 C 125.882812 15.09375 126.125 15.738281 126.332031 16.394531 C 126.539062 17.050781 126.714844 17.714844 126.855469 18.386719 C 126.996094 19.0625 127.101562 19.738281 127.171875 20.421875 C 127.242188 21.105469 127.277344 21.789062 127.277344 22.476562 Z M 127.277344 22.476562 " fill-opacity="1" fill-rule="nonzero"/></g><path fill="#eb5567" d="M 123.226562 22.515625 C 123.226562 23.179688 123.195312 23.835938 123.128906 24.496094 C 123.066406 25.152344 122.96875 25.804688 122.84375 26.453125 C 122.714844 27.101562 122.554688 27.742188 122.363281 28.375 C 122.175781 29.007812 121.953125 29.628906 121.703125 30.242188 C 121.453125 30.851562 121.171875 31.449219 120.863281 32.03125 C 120.554688 32.613281 120.21875 33.179688 119.851562 33.730469 C 119.488281 34.28125 119.097656 34.8125 118.683594 35.324219 C 118.265625 35.832031 117.828125 36.324219 117.363281 36.789062 C 116.898438 37.257812 116.414062 37.699219 115.90625 38.121094 C 115.398438 38.539062 114.875 38.933594 114.328125 39.300781 C 113.785156 39.667969 113.222656 40.007812 112.644531 40.320312 C 112.066406 40.628906 111.472656 40.914062 110.867188 41.164062 C 110.261719 41.417969 109.644531 41.640625 109.015625 41.832031 C 108.390625 42.023438 107.753906 42.183594 107.109375 42.316406 C 106.46875 42.445312 105.820312 42.539062 105.167969 42.605469 C 104.515625 42.667969 103.859375 42.703125 103.203125 42.703125 C 102.550781 42.703125 101.894531 42.667969 101.242188 42.605469 C 100.589844 42.539062 99.941406 42.445312 99.296875 42.316406 C 98.65625 42.183594 98.019531 42.023438 97.394531 41.832031 C 96.765625 41.640625 96.148438 41.417969 95.542969 41.164062 C 94.9375 40.914062 94.34375 40.628906 93.765625 40.320312 C 93.1875 40.007812 92.625 39.667969 92.082031 39.300781 C 91.535156 38.933594 91.011719 38.539062 90.503906 38.121094 C 89.996094 37.699219 89.511719 37.257812 89.046875 36.789062 C 88.582031 36.324219 88.144531 35.832031 87.726562 35.324219 C 87.3125 34.8125 86.921875 34.28125 86.558594 33.730469 C 86.191406 33.179688 85.855469 32.613281 85.546875 32.03125 C 85.238281 31.449219 84.957031 30.851562 84.707031 30.242188 C 84.457031 29.628906 84.234375 29.007812 84.046875 28.375 C 83.855469 27.742188 83.695312 27.101562 83.566406 26.453125 C 83.441406 25.804688 83.34375 25.152344 83.28125 24.496094 C 83.214844 23.835938 83.183594 23.179688 83.183594 22.515625 C 83.183594 21.855469 83.214844 21.195312 83.28125 20.539062 C 83.34375 19.878906 83.441406 19.226562 83.566406 18.578125 C 83.695312 17.929688 83.855469 17.289062 84.046875 16.65625 C 84.234375 16.023438 84.457031 15.402344 84.707031 14.792969 C 84.957031 14.179688 85.238281 13.585938 85.546875 13 C 85.855469 12.417969 86.191406 11.851562 86.558594 11.300781 C 86.921875 10.753906 87.3125 10.222656 87.726562 9.710938 C 88.144531 9.199219 88.582031 8.710938 89.046875 8.242188 C 89.511719 7.777344 89.996094 7.332031 90.503906 6.914062 C 91.011719 6.492188 91.535156 6.101562 92.082031 5.734375 C 92.625 5.367188 93.1875 5.027344 93.765625 4.714844 C 94.34375 4.402344 94.9375 4.121094 95.542969 3.867188 C 96.148438 3.613281 96.765625 3.390625 97.394531 3.199219 C 98.019531 3.007812 98.65625 2.847656 99.296875 2.71875 C 99.941406 2.589844 100.589844 2.492188 101.242188 2.429688 C 101.894531 2.363281 102.550781 2.332031 103.203125 2.332031 C 103.859375 2.332031 104.515625 2.363281 105.167969 2.429688 C 105.820312 2.492188 106.46875 2.589844 107.109375 2.71875 C 107.753906 2.847656 108.390625 3.007812 109.015625 3.199219 C 109.644531 3.390625 110.261719 3.613281 110.867188 3.867188 C 111.472656 4.121094 112.066406 4.402344 112.644531 4.714844 C 113.222656 5.027344 113.785156 5.367188 114.328125 5.734375 C 114.875 6.101562 115.398438 6.492188 115.90625 6.914062 C 116.414062 7.332031 116.898438 7.777344 117.363281 8.242188 C 117.828125 8.710938 118.265625 9.199219 118.683594 9.710938 C 119.097656 10.222656 119.488281 10.753906 119.851562 11.300781 C 120.21875 11.851562 120.554688 12.417969 120.863281 13 C 121.171875 13.585938 121.453125 14.179688 121.703125 14.792969 C 121.953125 15.402344 122.175781 16.023438 122.363281 16.65625 C 122.554688 17.289062 122.714844 17.929688 122.84375 18.578125 C 122.96875 19.226562 123.066406 19.878906 123.128906 20.539062 C 123.195312 21.195312 123.226562 21.855469 123.226562 22.515625 Z M 123.226562 22.515625 " fill-opacity="1" fill-rule="nonzero"/><path fill="#ffffff" d="M 111.242188 17.488281 L 111.242188 28.027344 L 93.671875 28.027344 C 93.671875 26.511719 93.671875 20.097656 93.671875 17.570312 L 101.023438 23.003906 C 101.3125 23.21875 101.695312 23.253906 102.003906 23.0625 Z M 95.1875 16.476562 L 109.421875 16.476562 L 101.589844 21.214844 Z M 92.773438 14.6875 C 92.277344 14.6875 91.875 15.085938 91.875 15.582031 C 91.875 16 91.875 28.5 91.875 28.921875 C 91.875 29.417969 92.277344 29.816406 92.773438 29.816406 L 112.144531 29.816406 C 112.644531 29.816406 113.042969 29.417969 113.042969 28.921875 L 113.042969 15.582031 C 113.042969 15.085938 112.644531 14.6875 112.144531 14.6875 Z M 92.773438 14.6875 " fill-opacity="1" fill-rule="nonzero"/><path fill="#f69eac" d="M 104.390625 37.414062 C 103.082031 37.414062 102.003906 38.253906 102.003906 39.292969 C 102.003906 40.332031 103.082031 41.171875 104.390625 41.171875 C 105.703125 41.171875 106.777344 40.332031 106.777344 39.292969 C 106.777344 38.253906 105.703125 37.414062 104.390625 37.414062 Z M 95.464844 33.488281 C 93.972656 33.472656 92.726562 34.136719 92.371094 35.25 C 91.902344 36.746094 93.226562 38.496094 95.320312 39.148438 C 97.410156 39.804688 99.484375 39.128906 99.949219 37.632812 C 100.417969 36.140625 99.09375 34.390625 97.003906 33.734375 C 96.484375 33.578125 95.960938 33.496094 95.464844 33.488281 Z M 93.53125 8.324219 C 92.691406 8.324219 92.015625 8.957031 92.015625 9.753906 C 92.015625 10.546875 92.691406 11.1875 93.53125 11.1875 C 94.375 11.1875 95.050781 10.554688 95.050781 9.753906 C 95.042969 8.964844 94.367188 8.324219 93.53125 8.324219 Z M 101.417969 3.703125 C 100.75 3.496094 99.90625 3.53125 99.085938 3.8125 C 97.449219 4.375 96.476562 5.808594 96.898438 7.007812 C 97.320312 8.207031 98.976562 8.695312 100.605469 8.128906 C 102.238281 7.566406 103.238281 6.132812 102.820312 4.933594 C 102.613281 4.335938 102.085938 3.90625 101.417969 3.703125 Z M 101.417969 3.703125 " fill-opacity="1" fill-rule="nonzero"/><path fill="#f99f2e" d="M 115.644531 85.558594 L 125.71875 84.769531 C 125.71875 84.769531 146.410156 89.457031 149.4375 96.152344 C 155.757812 110.140625 164.058594 126.796875 162.800781 133.71875 C 161.464844 141.089844 153.820312 141.515625 147.527344 141.976562 C 140.902344 142.460938 134.796875 142.789062 134.796875 142.789062 L 128.144531 132.203125 L 122.910156 132.273438 L 79.871094 130.0625 C 79.871094 130.0625 93.332031 104.734375 100.28125 92.007812 C 102.867188 87.253906 115.644531 85.558594 115.644531 85.558594 Z M 115.644531 85.558594 " fill-opacity="1" fill-rule="nonzero"/><path fill="#ffffff" d="M 126.351562 84.886719 L 124.9375 99.734375 L 119.554688 94.097656 L 114.527344 98.664062 L 115.390625 85.59375 L 120.316406 84.050781 Z M 126.351562 84.886719 " fill-opacity="1" fill-rule="nonzero"/><g clip-path="url(#2ac16cfafc)"><path fill="#886156" d="M 73.59375 144.230469 C 72.921875 144.207031 72.363281 144.730469 72.34375 145.398438 C 72.324219 146.070312 72.847656 146.625 73.515625 146.648438 C 85.265625 147.058594 97.015625 147.460938 108.765625 147.867188 C 112.503906 147.996094 116.246094 148.113281 119.984375 148.246094 C 121.597656 148.300781 123.242188 148.4375 124.855469 148.421875 C 125.765625 148.417969 126.667969 148.328125 127.582031 148.273438 C 129.359375 148.160156 131.152344 148.050781 132.933594 147.941406 C 137.382812 147.667969 141.839844 147.375 146.292969 147.101562 C 146.960938 147.058594 147.457031 146.496094 147.414062 145.828125 C 147.375 145.160156 146.808594 144.644531 146.140625 144.683594 C 141.242188 144.988281 136.328125 145.296875 131.429688 145.601562 C 129.234375 145.738281 127.027344 145.984375 124.828125 146.007812 C 122.714844 146.027344 120.589844 145.847656 118.480469 145.777344 C 114.742188 145.648438 111 145.53125 107.261719 145.398438 C 96.050781 145.007812 84.8125 144.621094 73.59375 144.230469 Z M 73.59375 144.230469 " fill-opacity="1" fill-rule="nonzero"/></g><path fill="#ffffff" d="M 65.300781 106.046875 L 112.917969 106.929688 C 113.65625 106.945312 114.445312 107.578125 114.664062 108.339844 L 124.179688 140.992188 C 124.398438 141.757812 125.1875 142.398438 125.925781 142.410156 L 147.644531 142.859375 L 147.121094 143.636719 C 146.683594 144.285156 145.726562 144.816406 144.988281 144.820312 L 124.964844 146.082031 L 76.367188 144.339844 C 75.628906 144.332031 74.839844 143.699219 74.621094 142.933594 L 64.355469 107.417969 C 64.132812 106.648438 64.554688 106.035156 65.300781 106.046875 Z M 65.300781 106.046875 " fill-opacity="1" fill-rule="nonzero"/><path fill="#d97d27" d="M 141.460938 114.636719 L 143.222656 127.5 L 130.710938 131.53125 L 145.789062 128.660156 Z M 141.460938 114.636719 " fill-opacity="1" fill-rule="nonzero"/><path fill="#aeaeae" d="M 89.910156 123.347656 L 88.59375 128.410156 L 91.097656 128.429688 L 92.296875 128.453125 L 92.136719 126.792969 L 92.890625 128.425781 L 93.285156 126.742188 L 93.433594 128.402344 L 94.800781 128.472656 L 94.496094 125.476562 L 90.890625 125.421875 Z M 89.910156 123.347656 " fill-opacity="1" fill-rule="nonzero"/><path fill="#fbc5b8" d="M 128.320312 132.175781 L 122.945312 132.210938 L 121.597656 132.15625 C 121.597656 132.15625 123.542969 139.90625 124.269531 141.289062 C 125.035156 142.769531 126.835938 142.488281 128.703125 142.492188 C 131.527344 142.5 134.714844 142.578125 134.714844 142.578125 Z M 128.320312 132.175781 " fill-opacity="1" fill-rule="nonzero"/><path fill="#fbc5b8" d="M 117.183594 47.730469 C 132.058594 47.097656 129.972656 62 129.972656 62 C 129.972656 62 130.65625 61.0625 132.148438 61.027344 C 133.328125 61 135.191406 61.800781 134.339844 65.125 C 133.015625 70.324219 129.285156 70.214844 129.285156 70.214844 C 129.285156 70.214844 128.082031 75.730469 125.242188 78.695312 L 126.042969 85.023438 L 119.589844 93.058594 C 119.589844 93.058594 115.457031 85.546875 115.457031 85.546875 L 114.566406 80.394531 C 113.265625 79.464844 111.855469 78.238281 110.546875 76.765625 C 109.53125 75.628906 108.585938 74.21875 107.8125 72.34375 C 105.902344 67.714844 105.101562 63.859375 105.101562 63.859375 C 105.101562 63.859375 102.472656 50.242188 114.601562 48.003906 C 115.410156 47.859375 116.230469 47.769531 117.183594 47.730469 Z M 117.183594 47.730469 " fill-opacity="1" fill-rule="nonzero"/><path fill="#2a1f1c" d="M 118.464844 78.355469 C 115.652344 78.769531 114.035156 74.683594 114.035156 74.683594 C 114.035156 74.683594 115.824219 74.617188 118.011719 74.355469 C 120.148438 74.101562 121.550781 73.878906 121.550781 73.878906 C 121.550781 73.878906 121.28125 77.9375 118.464844 78.355469 Z M 118.464844 78.355469 " fill-opacity="1" fill-rule="nonzero"/><path fill="#cb4c2c" d="M 117.929688 75.78125 C 116.472656 75.898438 115.203125 76.675781 115.203125 76.683594 C 115.960938 77.652344 117.066406 78.550781 118.472656 78.34375 C 119.839844 78.140625 120.570312 77.144531 121 76.109375 C 120.40625 75.953125 119.535156 75.648438 117.929688 75.78125 Z M 117.929688 75.78125 " fill-opacity="1" fill-rule="nonzero"/><path fill="#6e3734" d="M 115.492188 52.027344 C 115.554688 52.21875 115.5625 52.296875 115.636719 52.503906 C 116.222656 54.085938 117.121094 55.664062 118.34375 57.035156 C 119.703125 58.5625 121.433594 59.734375 123.496094 60.601562 C 118.785156 57.652344 116.515625 54.195312 115.492188 52.027344 Z M 114.472656 50.847656 C 113.554688 58.582031 109.316406 62.8125 107.628906 64.203125 C 111.339844 63.289062 113.476562 60.566406 114.242188 56.429688 C 114.519531 54.933594 114.609375 53.347656 114.546875 51.785156 C 114.527344 51.457031 114.5 51.152344 114.472656 50.847656 Z M 107.605469 45.195312 C 111.808594 41.808594 116.375 43.742188 116.375 43.742188 C 116.375 43.742188 119.859375 41.847656 123.453125 42.496094 C 131.367188 43.921875 134.617188 54.066406 136.910156 66.082031 C 141.191406 88.519531 125.925781 84.148438 125.925781 84.148438 L 125.214844 78.726562 C 125.214844 78.726562 126.65625 76.945312 127.683594 74.773438 C 128.710938 72.613281 129.304688 70.121094 129.304688 70.121094 C 129.304688 70.121094 132.339844 70.636719 134.101562 65.492188 C 135.308594 61.964844 133.113281 60.675781 131.304688 61.277344 C 129.753906 61.785156 129.511719 63.492188 129.511719 63.492188 C 127.917969 62.957031 126.503906 62.34375 125.226562 61.675781 C 125.214844 61.667969 125.207031 61.683594 125.199219 61.675781 C 122.179688 60.816406 119.789062 59.320312 117.988281 57.289062 C 116.734375 55.878906 115.851562 54.292969 115.25 52.667969 C 115.070312 52.179688 115.042969 51.902344 114.941406 51.503906 C 114.949219 51.601562 114.96875 51.675781 114.96875 51.78125 C 115.03125 53.371094 114.921875 54.960938 114.644531 56.484375 C 113.789062 61.109375 111.320312 64.203125 106.804688 64.878906 C 106.804688 64.878906 106.675781 68.445312 108.214844 72.714844 C 110.277344 77.703125 114.597656 80.339844 114.597656 80.339844 L 115.332031 84.738281 C 115.332031 84.738281 103.148438 87.273438 104.136719 78.914062 C 104.867188 72.703125 102.949219 65.015625 102.949219 65.015625 C 102.949219 65.015625 100.078125 51.269531 107.605469 45.195312 Z M 107.605469 45.195312 " fill-opacity="1" fill-rule="nonzero"/><path fill="#2a1f1c" d="M 120.859375 64.699219 C 120.472656 64.742188 120.199219 65.0625 120.238281 65.449219 C 120.28125 65.835938 120.625 66.109375 121.011719 66.070312 C 121.398438 66.027344 121.675781 65.683594 121.632812 65.296875 C 121.589844 64.917969 121.246094 64.65625 120.859375 64.699219 Z M 112.457031 65.601562 C 112.070312 65.644531 111.792969 65.988281 111.835938 66.371094 C 111.878906 66.757812 112.222656 67.035156 112.609375 66.992188 C 112.996094 66.953125 113.269531 66.605469 113.230469 66.222656 C 113.179688 65.835938 112.835938 65.558594 112.457031 65.601562 Z M 112.65625 62.570312 C 111.835938 62.597656 110.691406 62.949219 109.429688 64.203125 C 109.429688 64.203125 111.828125 62.722656 113.96875 62.820312 C 113.976562 62.824219 113.476562 62.542969 112.65625 62.570312 Z M 120.09375 61.757812 C 119.28125 61.902344 118.839844 62.28125 118.839844 62.28125 C 120.914062 61.730469 123.59375 62.667969 123.59375 62.667969 C 122.09375 61.710938 120.910156 61.613281 120.09375 61.757812 Z M 120.09375 61.757812 " fill-opacity="1" fill-rule="nonzero"/><path fill="#de7e67" d="M 114.871094 80.496094 C 114.871094 80.496094 116.632812 81.972656 118.605469 81.757812 C 121.058594 81.496094 123.363281 79.683594 123.363281 79.683594 C 123.363281 79.683594 120.914062 82.101562 118.699219 82.398438 C 116.761719 82.648438 114.871094 80.496094 114.871094 80.496094 Z M 116.601562 66.792969 C 115.300781 71.097656 118.285156 71.894531 118.285156 71.894531 C 113.355469 71.585938 116.601562 66.792969 116.601562 66.792969 Z M 132.058594 62.867188 C 132.265625 62.824219 132.492188 62.875 132.691406 63.011719 C 133.941406 63.914062 131.816406 67.875 130.285156 68.09375 C 129.851562 68.15625 129.824219 67.660156 129.90625 67.125 C 129.988281 66.574219 130.753906 66.34375 130.886719 65.945312 C 131.042969 65.476562 130.601562 65.203125 130.710938 64.609375 C 130.859375 63.8125 131.4375 62.992188 132.058594 62.867188 Z M 132.058594 62.867188 " fill-opacity="1" fill-rule="nonzero"/><path fill="#ffffff" d="M 118.257812 44.492188 C 117.753906 44.480469 117.246094 44.484375 116.722656 44.507812 C 113.238281 44.652344 110.414062 45.644531 108.214844 47.386719 C 106.34375 48.867188 105 50.828125 104.101562 53.148438 C 103.480469 54.753906 103.101562 56.457031 102.921875 58.175781 C 102.824219 59.066406 102.804688 59.851562 102.804688 60.566406 C 101.375 61.558594 100.769531 63.90625 101.195312 66.660156 C 101.726562 70.085938 103.660156 72.839844 105.910156 72.496094 C 108.160156 72.144531 106.800781 69.625 106.261719 66.199219 C 105.828125 63.410156 106.074219 60.882812 104.964844 60.238281 C 104.972656 59.679688 104.992188 59.078125 105.066406 58.40625 C 105.234375 56.855469 105.5625 55.332031 106.117188 53.921875 C 106.882812 51.945312 108.015625 50.296875 109.558594 49.074219 C 111.386719 47.625 113.773438 46.785156 116.808594 46.664062 C 120.589844 46.503906 123.550781 47.253906 125.792969 48.75 C 127.664062 49.996094 129.015625 51.75 129.917969 53.894531 C 130.527344 55.324219 130.898438 56.875 131.09375 58.445312 C 131.148438 58.902344 131.175781 59.3125 131.195312 59.714844 C 129.738281 60.195312 129.402344 62.523438 129.035156 65.421875 C 128.675781 68.257812 128.394531 70.753906 129.589844 71.6875 L 128.46875 74.679688 L 122.640625 75.65625 C 122.296875 75.339844 121.660156 75.207031 120.984375 75.359375 C 120.074219 75.566406 119.445312 76.222656 119.582031 76.8125 C 119.722656 77.40625 120.5625 77.722656 121.472656 77.515625 C 122.15625 77.355469 122.675781 76.957031 122.839844 76.515625 L 128.863281 75.511719 C 129.023438 75.484375 129.144531 75.375 129.203125 75.230469 L 130.394531 72.046875 C 130.445312 72.054688 130.484375 72.066406 130.535156 72.074219 C 132.789062 72.363281 134.976562 69.808594 135.417969 66.371094 C 135.769531 63.625 134.886719 61.152344 133.367188 60.121094 C 133.355469 59.527344 133.320312 58.894531 133.230469 58.183594 C 133.015625 56.429688 132.597656 54.691406 131.90625 53.054688 C 130.851562 50.539062 129.234375 48.445312 126.992188 46.953125 C 124.675781 45.414062 121.777344 44.570312 118.257812 44.492188 Z M 118.257812 44.492188 " fill-opacity="1" fill-rule="nonzero"/></svg>