<svg xmlns="http://www.w3.org/2000/svg" xmlns:xlink="http://www.w3.org/1999/xlink" width="60" zoomAndPan="magnify" viewBox="0 0 45 33.749998" height="45" preserveAspectRatio="xMidYMid meet" version="1.0"><defs><clipPath id="f3e18df78b"><path d="M 0.164062 0.949219 L 44.832031 0.949219 L 44.832031 32.21875 L 0.164062 32.21875 Z M 0.164062 0.949219 " clip-rule="nonzero"/></clipPath></defs><path fill="#04a6f8" d="M 13.363281 10.589844 L 12.996094 10.589844 C 12.636719 10.589844 12.34375 10.878906 12.34375 11.238281 L 12.34375 14.800781 C 12.34375 16.433594 11.484375 16.433594 11.203125 16.433594 C 10.308594 16.433594 10.121094 15.546875 10.121094 14.800781 L 10.121094 11.238281 C 10.121094 10.878906 9.828125 10.589844 9.46875 10.589844 L 9.105469 10.589844 C 8.746094 10.589844 8.453125 10.878906 8.453125 11.238281 L 8.453125 14.785156 C 8.453125 16.789062 9.445312 17.941406 11.171875 17.941406 C 12.953125 17.941406 14.015625 16.746094 14.015625 14.746094 L 14.015625 11.238281 C 14.015625 10.878906 13.722656 10.589844 13.363281 10.589844 " fill-opacity="1" fill-rule="nonzero"/><path fill="#04a6f8" d="M 18.785156 16.308594 L 17.347656 16.308594 C 16.984375 16.308594 16.695312 16.019531 16.695312 15.660156 L 16.695312 11.238281 C 16.695312 10.878906 16.402344 10.589844 16.042969 10.589844 L 15.6875 10.589844 C 15.328125 10.589844 15.039062 10.878906 15.039062 11.238281 L 15.039062 17.183594 C 15.039062 17.542969 15.328125 17.835938 15.6875 17.835938 L 18.785156 17.835938 C 19.144531 17.835938 19.4375 17.542969 19.4375 17.183594 L 19.4375 16.960938 C 19.4375 16.601562 19.144531 16.308594 18.785156 16.308594 " fill-opacity="1" fill-rule="nonzero"/><path fill="#04a6f8" d="M 7.046875 10.589844 L 4.0625 10.589844 C 3.703125 10.589844 3.410156 10.878906 3.410156 11.238281 L 3.410156 17.183594 C 3.410156 17.542969 3.703125 17.835938 4.0625 17.835938 L 4.421875 17.835938 C 4.78125 17.835938 5.070312 17.542969 5.070312 17.183594 L 5.070312 15.582031 C 5.070312 15.222656 5.363281 14.929688 5.722656 14.929688 L 6.847656 14.929688 C 7.207031 14.929688 7.496094 14.640625 7.496094 14.28125 L 7.496094 14.066406 C 7.496094 13.707031 7.207031 13.417969 6.847656 13.417969 L 5.722656 13.417969 C 5.566406 13.417969 5.425781 13.359375 5.3125 13.269531 C 5.296875 13.253906 5.273438 13.238281 5.257812 13.222656 C 5.246094 13.210938 5.238281 13.195312 5.226562 13.183594 C 5.210938 13.164062 5.195312 13.144531 5.179688 13.125 C 5.167969 13.109375 5.164062 13.09375 5.15625 13.082031 C 5.140625 13.058594 5.132812 13.039062 5.121094 13.015625 C 5.113281 12.996094 5.109375 12.972656 5.101562 12.957031 C 5.097656 12.933594 5.089844 12.914062 5.082031 12.894531 C 5.074219 12.855469 5.070312 12.8125 5.070312 12.769531 C 5.070312 12.769531 5.070312 12.765625 5.070312 12.765625 C 5.070312 12.40625 5.363281 12.113281 5.722656 12.113281 L 7.046875 12.113281 C 7.40625 12.113281 7.699219 11.824219 7.699219 11.460938 L 7.699219 11.238281 C 7.699219 10.878906 7.40625 10.589844 7.046875 10.589844 " fill-opacity="1" fill-rule="nonzero"/><path fill="#04a6f8" d="M 36.820312 16.394531 C 36.695312 16.394531 36.542969 16.394531 36.398438 16.386719 L 36.398438 12.054688 C 36.542969 12.039062 36.726562 12.027344 36.953125 12.027344 C 37.695312 12.027344 38.261719 12.214844 38.625 12.585938 C 38.96875 12.929688 39.140625 13.433594 39.136719 14.089844 C 39.136719 15.597656 38.335938 16.394531 36.820312 16.394531 Z M 36.914062 10.542969 C 36.3125 10.542969 35.699219 10.585938 35.09375 10.679688 L 34.738281 10.734375 L 34.738281 17.769531 L 35.109375 17.8125 C 35.570312 17.863281 36.089844 17.890625 36.65625 17.890625 C 38.019531 17.890625 39.105469 17.53125 39.785156 16.847656 C 40.46875 16.175781 40.832031 15.210938 40.832031 14.058594 C 40.832031 12.960938 40.484375 12.082031 39.796875 11.453125 C 39.136719 10.839844 38.195312 10.542969 36.914062 10.542969 " fill-opacity="1" fill-rule="nonzero"/><g clip-path="url(#f3e18df78b)"><path fill="#04a6f8" d="M 43.144531 25.195312 C 43.144531 25.347656 43.023438 25.472656 42.871094 25.472656 L 2.105469 25.472656 C 1.949219 25.472656 1.828125 25.347656 1.828125 25.195312 L 1.828125 2.910156 C 1.828125 2.757812 1.949219 2.632812 2.105469 2.632812 L 42.871094 2.632812 C 43.023438 2.632812 43.144531 2.757812 43.144531 2.910156 Z M 26.152344 30.863281 L 18.816406 30.863281 L 18.816406 27.332031 L 26.152344 27.332031 Z M 42.871094 0.972656 L 2.105469 0.972656 C 1.035156 0.972656 0.164062 1.839844 0.164062 2.910156 L 0.164062 25.195312 C 0.164062 26.265625 1.035156 27.132812 2.105469 27.132812 L 17.15625 27.132812 L 17.15625 30.863281 C 15.773438 30.863281 14.386719 30.863281 13.003906 30.863281 C 11.9375 30.863281 11.933594 32.523438 13.003906 32.523438 C 19.328125 32.523438 25.644531 32.523438 31.96875 32.523438 C 33.035156 32.523438 33.039062 30.863281 31.96875 30.863281 C 30.582031 30.863281 29.199219 30.863281 27.816406 30.863281 L 27.816406 27.132812 L 42.871094 27.132812 C 43.9375 27.132812 44.808594 26.265625 44.808594 25.195312 L 44.808594 2.910156 C 44.808594 1.839844 43.9375 0.972656 42.871094 0.972656 " fill-opacity="1" fill-rule="nonzero"/></g><path fill="#04a6f8" d="M 33.066406 10.589844 L 32.699219 10.589844 C 32.339844 10.589844 32.046875 10.878906 32.046875 11.238281 L 32.046875 12.621094 C 32.046875 12.980469 31.757812 13.273438 31.394531 13.273438 L 30.425781 13.273438 C 30.066406 13.273438 29.773438 12.980469 29.773438 12.621094 L 29.773438 11.238281 C 29.773438 10.878906 29.484375 10.589844 29.125 10.589844 L 28.769531 10.589844 C 28.410156 10.589844 28.117188 10.878906 28.117188 11.238281 L 28.117188 17.183594 C 28.117188 17.542969 28.410156 17.835938 28.769531 17.835938 L 29.125 17.835938 C 29.484375 17.835938 29.773438 17.542969 29.773438 17.183594 L 29.773438 15.480469 C 29.773438 15.117188 30.066406 14.828125 30.425781 14.828125 L 31.394531 14.828125 C 31.757812 14.828125 32.046875 15.117188 32.046875 15.480469 L 32.046875 17.183594 C 32.046875 17.542969 32.339844 17.835938 32.699219 17.835938 L 33.066406 17.835938 C 33.425781 17.835938 33.714844 17.542969 33.714844 17.183594 L 33.714844 11.238281 C 33.714844 10.878906 33.425781 10.589844 33.066406 10.589844 " fill-opacity="1" fill-rule="nonzero"/><path fill="#04a6f8" d="M 23.695312 16.308594 L 22.253906 16.308594 C 21.894531 16.308594 21.601562 16.019531 21.601562 15.660156 L 21.601562 11.238281 C 21.601562 10.878906 21.3125 10.589844 20.953125 10.589844 L 20.597656 10.589844 C 20.238281 10.589844 19.945312 10.878906 19.945312 11.238281 L 19.945312 17.183594 C 19.945312 17.542969 20.238281 17.835938 20.597656 17.835938 L 23.695312 17.835938 C 24.054688 17.835938 24.34375 17.542969 24.34375 17.183594 L 24.34375 16.960938 C 24.34375 16.601562 24.054688 16.308594 23.695312 16.308594 " fill-opacity="1" fill-rule="nonzero"/></svg>