<svg xmlns="http://www.w3.org/2000/svg" xmlns:xlink="http://www.w3.org/1999/xlink" width="60" zoomAndPan="magnify" viewBox="0 0 45 33.749998" height="45" preserveAspectRatio="xMidYMid meet" version="1.0"><defs><clipPath id="7cfc31fddc"><path d="M 5.75 0 L 39.25 0 L 39.25 33.5 L 5.75 33.5 Z M 5.75 0 " clip-rule="nonzero"/></clipPath></defs><g clip-path="url(#7cfc31fddc)"><path fill="#04a6f8" d="M 22.5 33.5 C 13.261719 33.5 5.75 25.988281 5.75 16.75 C 5.75 7.515625 13.261719 0 22.5 0 C 31.738281 0 39.25 7.515625 39.25 16.75 C 39.25 25.988281 31.734375 33.5 22.5 33.5 Z M 22.5 0.785156 C 13.695312 0.785156 6.535156 7.945312 6.535156 16.75 C 6.535156 25.554688 13.695312 32.714844 22.5 32.714844 C 31.304688 32.714844 38.464844 25.554688 38.464844 16.75 C 38.464844 7.945312 31.304688 0.785156 22.5 0.785156 Z M 22.5 0.785156 " fill-opacity="1" fill-rule="evenodd"/></g><path fill="#04a6f8" d="M 11.425781 19.492188 C 11.242188 19.492188 11.082031 19.367188 11.042969 19.183594 C 10.214844 15.289062 11.402344 11.285156 14.21875 8.46875 C 18.792969 3.890625 26.203125 3.894531 30.78125 8.46875 C 33.597656 11.28125 34.785156 15.289062 33.957031 19.183594 C 33.847656 19.691406 33.078125 19.523438 33.1875 19.019531 C 34.644531 12.253906 29.457031 5.820312 22.496094 5.820312 C 15.59375 5.820312 10.351562 12.226562 11.8125 19.023438 C 11.863281 19.257812 11.691406 19.492188 11.425781 19.492188 Z M 11.425781 19.492188 " fill-opacity="1" fill-rule="evenodd"/><path fill="#04a6f8" d="M 22.5 8.503906 C 22.28125 8.503906 22.105469 8.328125 22.105469 8.109375 L 22.105469 5.429688 C 22.105469 4.914062 22.890625 4.914062 22.890625 5.429688 L 22.890625 8.109375 C 22.890625 8.328125 22.71875 8.503906 22.5 8.503906 Z M 22.5 8.503906 " fill-opacity="1" fill-rule="evenodd"/><path fill="#04a6f8" d="M 26.820312 9.660156 C 26.515625 9.660156 26.332031 9.328125 26.480469 9.070312 L 27.820312 6.75 C 28.078125 6.304688 28.757812 6.691406 28.5 7.144531 L 27.160156 9.464844 C 27.085938 9.589844 26.953125 9.660156 26.820312 9.660156 Z M 26.820312 9.660156 " fill-opacity="1" fill-rule="evenodd"/><path fill="#04a6f8" d="M 29.984375 12.820312 C 29.585938 12.820312 29.4375 12.289062 29.785156 12.089844 L 32.105469 10.75 C 32.550781 10.492188 32.949219 11.171875 32.5 11.433594 C 32.152344 11.632812 30.214844 12.820312 29.984375 12.820312 Z M 29.984375 12.820312 " fill-opacity="1" fill-rule="evenodd"/><path fill="#04a6f8" d="M 33.820312 17.144531 L 31.140625 17.144531 C 30.625 17.144531 30.625 16.359375 31.140625 16.359375 L 33.816406 16.359375 C 34.332031 16.359375 34.332031 17.144531 33.820312 17.144531 Z M 33.820312 17.144531 " fill-opacity="1" fill-rule="evenodd"/><path fill="#04a6f8" d="M 18.179688 9.660156 C 18.042969 9.660156 17.910156 9.589844 17.835938 9.464844 L 16.5 7.144531 C 16.238281 6.695312 16.921875 6.300781 17.179688 6.75 L 18.519531 9.070312 C 18.667969 9.332031 18.484375 9.660156 18.179688 9.660156 Z M 18.179688 9.660156 " fill-opacity="1" fill-rule="evenodd"/><path fill="#04a6f8" d="M 15.015625 12.820312 C 14.785156 12.820312 12.847656 11.632812 12.5 11.433594 C 12.050781 11.171875 12.445312 10.492188 12.890625 10.75 L 15.210938 12.089844 C 15.558594 12.289062 15.417969 12.820312 15.015625 12.820312 Z M 15.015625 12.820312 " fill-opacity="1" fill-rule="evenodd"/><path fill="#04a6f8" d="M 13.859375 17.144531 L 11.179688 17.144531 C 10.660156 17.144531 10.664062 16.359375 11.179688 16.359375 L 13.859375 16.359375 C 14.378906 16.359375 14.375 17.144531 13.859375 17.144531 Z M 13.859375 17.144531 " fill-opacity="1" fill-rule="evenodd"/><path fill="#ff6600" d="M 17.398438 30.222656 C 17.179688 30.222656 17.007812 30.042969 17.007812 29.828125 L 17.007812 25.25 C 17.007812 25.035156 17.179688 24.855469 17.398438 24.855469 L 20.015625 24.855469 C 20.53125 24.855469 20.53125 25.640625 20.015625 25.640625 L 17.792969 25.640625 L 17.792969 29.828125 C 17.792969 30.046875 17.613281 30.222656 17.398438 30.222656 Z M 17.398438 30.222656 " fill-opacity="1" fill-rule="evenodd"/><path fill="#ff6600" d="M 19.730469 27.929688 L 17.398438 27.929688 C 16.882812 27.929688 16.882812 27.144531 17.398438 27.144531 L 19.730469 27.144531 C 20.246094 27.144531 20.246094 27.929688 19.730469 27.929688 Z M 19.730469 27.929688 " fill-opacity="1" fill-rule="evenodd"/><path fill="#ff6600" d="M 21.355469 30.222656 C 21.136719 30.222656 20.960938 30.042969 20.960938 29.828125 L 20.960938 25.25 C 20.960938 24.730469 21.746094 24.730469 21.746094 25.25 L 21.746094 29.828125 C 21.746094 30.046875 21.574219 30.222656 21.355469 30.222656 Z M 21.355469 30.222656 " fill-opacity="1" fill-rule="evenodd"/><path fill="#ff6600" d="M 23.972656 27.929688 L 21.355469 27.929688 C 21.136719 27.929688 20.960938 27.753906 20.960938 27.539062 L 20.960938 25.25 C 20.960938 25.03125 21.136719 24.855469 21.355469 24.855469 L 23.972656 24.855469 C 24.1875 24.855469 24.363281 25.03125 24.363281 25.25 L 24.363281 27.539062 C 24.363281 27.757812 24.191406 27.929688 23.972656 27.929688 Z M 21.746094 27.144531 L 23.578125 27.144531 L 23.578125 25.640625 L 21.746094 25.640625 Z M 21.746094 27.144531 " fill-opacity="1" fill-rule="evenodd"/><path fill="#ff6600" d="M 26.457031 30.222656 L 25.308594 30.222656 C 24.792969 30.222656 24.792969 29.4375 25.308594 29.4375 L 26.457031 29.4375 C 27.445312 29.4375 27.445312 27.929688 26.457031 27.929688 C 25.609375 27.929688 24.917969 27.242188 24.917969 26.394531 C 24.917969 25.546875 25.609375 24.855469 26.457031 24.855469 L 27.601562 24.855469 C 28.117188 24.855469 28.117188 25.640625 27.601562 25.640625 L 26.457031 25.640625 C 25.464844 25.640625 25.464844 27.144531 26.457031 27.144531 C 27.304688 27.144531 27.992188 27.835938 27.992188 28.683594 C 27.992188 29.53125 27.304688 30.222656 26.457031 30.222656 Z M 26.457031 30.222656 " fill-opacity="1" fill-rule="evenodd"/><path fill="#ff6600" d="M 22.5 18.960938 C 21.335938 18.960938 20.390625 18.015625 20.390625 16.851562 C 20.390625 15.6875 21.335938 14.742188 22.5 14.742188 C 23.664062 14.742188 24.609375 15.6875 24.609375 16.851562 C 24.609375 18.015625 23.664062 18.960938 22.5 18.960938 Z M 22.5 15.527344 C 20.757812 15.527344 20.757812 18.175781 22.5 18.175781 C 24.242188 18.175781 24.242188 15.527344 22.5 15.527344 Z M 22.5 15.527344 " fill-opacity="1" fill-rule="evenodd"/><path fill="#ff6600" d="M 22.5 17.242188 C 22.28125 17.242188 22.105469 17.066406 22.105469 16.851562 L 22.105469 10.902344 C 22.105469 10.386719 22.890625 10.386719 22.890625 10.902344 L 22.890625 16.855469 C 22.890625 17.070312 22.71875 17.242188 22.5 17.242188 Z M 22.5 17.242188 " fill-opacity="1" fill-rule="evenodd"/><path fill="#dadada" d="M 6.535156 16.75 C 6.535156 24.460938 12.027344 30.914062 19.308594 32.394531 C 13.019531 29.980469 8.542969 23.878906 8.542969 16.75 C 8.542969 9.621094 13.019531 3.519531 19.308594 1.105469 C 12.027344 2.589844 6.535156 9.039062 6.535156 16.75 Z M 6.535156 16.75 " fill-opacity="1" fill-rule="evenodd"/></svg>