<svg xmlns="http://www.w3.org/2000/svg" xmlns:xlink="http://www.w3.org/1999/xlink" width="60" zoomAndPan="magnify" viewBox="0 0 45 33.749998" height="45" preserveAspectRatio="xMidYMid meet" version="1.0"><defs><clipPath id="89270c085c"><path d="M 34 15 L 39.25 15 L 39.25 19 L 34 19 Z M 34 15 " clip-rule="nonzero"/></clipPath><clipPath id="32d9e3ea9f"><path d="M 20 28 L 25 28 L 25 33.5 L 20 33.5 Z M 20 28 " clip-rule="nonzero"/></clipPath><clipPath id="bb6a32d8f7"><path d="M 5.75 15 L 11 15 L 11 19 L 5.75 19 Z M 5.75 15 " clip-rule="nonzero"/></clipPath></defs><path fill="#fff53d" d="M 26.054688 13.195312 C 26.285156 13.429688 26.496094 13.683594 26.679688 13.957031 C 26.859375 14.234375 27.015625 14.523438 27.140625 14.828125 C 27.269531 15.132812 27.363281 15.445312 27.429688 15.769531 C 27.492188 16.09375 27.523438 16.421875 27.523438 16.75 C 27.523438 17.078125 27.492188 17.40625 27.429688 17.730469 C 27.363281 18.054688 27.269531 18.367188 27.140625 18.671875 C 27.015625 18.976562 26.859375 19.265625 26.679688 19.542969 C 26.496094 19.816406 26.285156 20.070312 26.054688 20.304688 C 25.820312 20.535156 25.566406 20.746094 25.292969 20.929688 C 25.015625 21.113281 24.726562 21.265625 24.421875 21.394531 C 24.117188 21.519531 23.804688 21.613281 23.480469 21.679688 C 23.15625 21.742188 22.828125 21.773438 22.5 21.773438 C 22.167969 21.773438 21.84375 21.742188 21.519531 21.679688 C 21.195312 21.613281 20.882812 21.519531 20.578125 21.394531 C 20.273438 21.265625 19.980469 21.113281 19.707031 20.929688 C 19.433594 20.746094 19.179688 20.535156 18.945312 20.304688 C 18.714844 20.070312 18.503906 19.816406 18.320312 19.542969 C 18.136719 19.269531 17.984375 18.976562 17.855469 18.671875 C 17.730469 18.367188 17.636719 18.054688 17.570312 17.730469 C 17.507812 17.40625 17.472656 17.082031 17.472656 16.75 C 17.472656 16.421875 17.507812 16.09375 17.570312 15.769531 C 17.636719 15.445312 17.730469 15.132812 17.855469 14.828125 C 17.984375 14.523438 18.136719 14.234375 18.320312 13.957031 C 18.503906 13.683594 18.714844 13.429688 18.945312 13.195312 C 19.179688 12.964844 19.433594 12.753906 19.707031 12.570312 C 19.980469 12.386719 20.273438 12.234375 20.578125 12.109375 C 20.882812 11.980469 21.195312 11.886719 21.519531 11.820312 C 21.84375 11.757812 22.167969 11.726562 22.5 11.726562 C 22.828125 11.726562 23.15625 11.757812 23.480469 11.820312 C 23.804688 11.886719 24.117188 11.980469 24.421875 12.109375 C 24.726562 12.234375 25.015625 12.386719 25.292969 12.570312 C 25.566406 12.753906 25.820312 12.964844 26.054688 13.195312 Z M 26.054688 13.195312 " fill-opacity="1" fill-rule="nonzero"/><path fill="#04a6f8" d="M 30.214844 13.488281 C 29.792969 12.492188 29.191406 11.597656 28.421875 10.828125 C 27.652344 10.058594 26.757812 9.457031 25.761719 9.035156 C 24.726562 8.597656 23.628906 8.375 22.5 8.375 C 21.371094 8.375 20.273438 8.597656 19.238281 9.035156 C 18.242188 9.457031 17.347656 10.058594 16.578125 10.828125 C 15.808594 11.597656 15.207031 12.492188 14.785156 13.488281 C 14.347656 14.523438 14.125 15.621094 14.125 16.75 C 14.125 17.878906 14.347656 18.976562 14.785156 20.011719 C 15.207031 21.007812 15.808594 21.902344 16.578125 22.671875 C 17.347656 23.441406 18.242188 24.042969 19.238281 24.464844 C 20.273438 24.902344 21.371094 25.125 22.5 25.125 C 23.628906 25.125 24.726562 24.902344 25.761719 24.464844 C 26.757812 24.042969 27.652344 23.441406 28.421875 22.671875 C 29.191406 21.902344 29.792969 21.007812 30.214844 20.011719 C 30.652344 18.976562 30.875 17.878906 30.875 16.75 C 30.875 15.621094 30.652344 14.523438 30.214844 13.488281 Z M 22.5 21.773438 C 19.730469 21.773438 17.476562 19.519531 17.476562 16.75 C 17.476562 13.980469 19.730469 11.726562 22.5 11.726562 C 25.269531 11.726562 27.523438 13.980469 27.523438 16.75 C 27.523438 19.519531 25.269531 21.773438 22.5 21.773438 Z M 22.5 21.773438 " fill-opacity="1" fill-rule="nonzero"/><path fill="#04a6f8" d="M 22.5 5.023438 C 23.425781 5.023438 24.175781 4.273438 24.175781 3.351562 L 24.175781 1.675781 C 24.175781 0.75 23.425781 0 22.5 0 C 21.574219 0 20.824219 0.75 20.824219 1.675781 L 20.824219 3.351562 C 20.824219 4.273438 21.574219 5.023438 22.5 5.023438 Z M 22.5 5.023438 " fill-opacity="1" fill-rule="nonzero"/><path fill="#04a6f8" d="M 31.976562 8.949219 C 32.40625 8.949219 32.832031 8.785156 33.160156 8.460938 L 34.34375 7.273438 C 35 6.621094 35 5.558594 34.34375 4.90625 C 33.691406 4.253906 32.628906 4.253906 31.976562 4.90625 L 30.792969 6.089844 C 30.136719 6.746094 30.136719 7.804688 30.792969 8.460938 C 31.117188 8.785156 31.546875 8.949219 31.976562 8.949219 Z M 31.976562 8.949219 " fill-opacity="1" fill-rule="nonzero"/><g clip-path="url(#89270c085c)"><path fill="#04a6f8" d="M 37.574219 15.074219 L 35.902344 15.074219 C 34.976562 15.074219 34.226562 15.824219 34.226562 16.75 C 34.226562 17.675781 34.976562 18.425781 35.902344 18.425781 L 37.574219 18.425781 C 38.5 18.425781 39.25 17.675781 39.25 16.75 C 39.25 15.824219 38.5 15.074219 37.574219 15.074219 Z M 37.574219 15.074219 " fill-opacity="1" fill-rule="nonzero"/></g><path fill="#04a6f8" d="M 33.160156 25.042969 C 32.507812 24.386719 31.445312 24.386719 30.792969 25.042969 C 30.136719 25.695312 30.136719 26.757812 30.792969 27.410156 L 31.976562 28.59375 C 32.304688 28.921875 32.730469 29.085938 33.160156 29.085938 C 33.589844 29.085938 34.019531 28.921875 34.34375 28.59375 C 35 27.941406 35 26.878906 34.34375 26.226562 Z M 33.160156 25.042969 " fill-opacity="1" fill-rule="nonzero"/><g clip-path="url(#32d9e3ea9f)"><path fill="#04a6f8" d="M 22.5 28.476562 C 21.574219 28.476562 20.824219 29.226562 20.824219 30.152344 L 20.824219 31.828125 C 20.824219 32.75 21.574219 33.5 22.5 33.5 C 23.425781 33.5 24.175781 32.75 24.175781 31.828125 L 24.175781 30.152344 C 24.175781 29.226562 23.425781 28.476562 22.5 28.476562 Z M 22.5 28.476562 " fill-opacity="1" fill-rule="nonzero"/></g><path fill="#04a6f8" d="M 11.839844 25.042969 L 10.65625 26.226562 C 10 26.878906 10 27.941406 10.65625 28.59375 C 10.980469 28.921875 11.410156 29.085938 11.839844 29.085938 C 12.269531 29.085938 12.695312 28.921875 13.023438 28.59375 L 14.207031 27.410156 C 14.863281 26.757812 14.863281 25.695312 14.207031 25.042969 C 13.554688 24.386719 12.492188 24.386719 11.839844 25.042969 Z M 11.839844 25.042969 " fill-opacity="1" fill-rule="nonzero"/><g clip-path="url(#bb6a32d8f7)"><path fill="#04a6f8" d="M 10.773438 16.75 C 10.773438 15.824219 10.023438 15.074219 9.097656 15.074219 L 7.425781 15.074219 C 6.5 15.074219 5.75 15.824219 5.75 16.75 C 5.75 17.675781 6.5 18.425781 7.425781 18.425781 L 9.097656 18.425781 C 10.023438 18.425781 10.773438 17.675781 10.773438 16.75 Z M 10.773438 16.75 " fill-opacity="1" fill-rule="nonzero"/></g><path fill="#04a6f8" d="M 11.839844 8.460938 C 12.167969 8.785156 12.59375 8.949219 13.023438 8.949219 C 13.453125 8.949219 13.882812 8.785156 14.207031 8.460938 C 14.863281 7.804688 14.863281 6.746094 14.207031 6.089844 L 13.023438 4.90625 C 12.371094 4.253906 11.308594 4.253906 10.65625 4.90625 C 10 5.558594 10 6.621094 10.65625 7.273438 Z M 11.839844 8.460938 " fill-opacity="1" fill-rule="nonzero"/></svg>