<?xml version="1.0" encoding="utf-8"?>
<!-- Generator: Adobe Illustrator 19.2.0, SVG Export Plug-In . SVG Version: 6.00 Build 0)  -->
<svg version="1.1" id="Layer_1" xmlns="http://www.w3.org/2000/svg" xmlns:xlink="http://www.w3.org/1999/xlink" x="0px" y="0px"
	 width="270px" height="380px" viewBox="0 0 270 380" style="enable-background:new 0 0 270 380;" xml:space="preserve">
<style type="text/css">
	.st0{fill:#E74D89;}
	.st1{fill:#B2215A;}
</style>
<g>
	<path class="st0" d="M141.3,16.8c5.7,0,10.3,4.6,10.3,10.3s-4.6,10.3-10.3,10.3s-10.3-4.6-10.3-10.3S135.7,16.8,141.3,16.8
		L141.3,16.8L141.3,16.8z"/>
	<path class="st1" d="M141.3,38.1c-6.1,0-11-4.9-11-11s4.9-11,11-11s11,4.9,11,11C152.3,33.1,147.4,38.1,141.3,38.1L141.3,38.1
		L141.3,38.1z M150.6,28.6c-0.3-0.1-2.9-0.9-5.9-0.4c1.2,3.4,1.7,6.1,1.8,6.7C148.7,33.4,150.2,31.2,150.6,28.6L150.6,28.6
		L150.6,28.6z M145,35.7c-0.1-0.8-0.7-3.7-2-7.1c0,0,0,0-0.1,0c-5.3,1.8-7.2,5.5-7.4,5.9c1.6,1.2,3.6,2,5.8,2
		C142.6,36.5,143.9,36.2,145,35.7L145,35.7L145,35.7z M134.4,33.4c0.2-0.4,2.8-4.6,7.6-6.2c0.1,0,0.2-0.1,0.4-0.1
		c-0.2-0.5-0.5-1.1-0.8-1.6c-4.7,1.4-9.2,1.3-9.7,1.3c0,0.1,0,0.2,0,0.3C132,29.5,132.9,31.7,134.4,33.4L134.4,33.4L134.4,33.4z
		 M132.1,25.1c0.4,0,4.3,0,8.7-1.1c-1.6-2.8-3.2-5.1-3.5-5.4C134.7,19.8,132.8,22.2,132.1,25.1L132.1,25.1L132.1,25.1z M139.1,17.9
		c0.3,0.3,2,2.7,3.5,5.5c3.3-1.3,4.8-3.1,4.9-3.4c-1.7-1.5-3.8-2.4-6.2-2.4C140.6,17.7,139.8,17.8,139.1,17.9L139.1,17.9L139.1,17.9
		z M148.6,21.1c-0.2,0.3-1.8,2.3-5.2,3.7c0.2,0.4,0.4,0.9,0.6,1.4c0.1,0.2,0.1,0.3,0.2,0.5c3.1-0.4,6.2,0.2,6.5,0.3
		C150.7,24.8,149.9,22.7,148.6,21.1L148.6,21.1L148.6,21.1z"/>
</g>
</svg>
