<?xml version="1.0" encoding="utf-8"?>
<!-- Generator: Adobe Illustrator 19.2.0, SVG Export Plug-In . SVG Version: 6.00 Build 0)  -->
<svg version="1.1" id="Layer_1" xmlns="http://www.w3.org/2000/svg" xmlns:xlink="http://www.w3.org/1999/xlink" x="0px" y="0px"
	 width="110px" height="110px" viewBox="0 0 110 110" style="enable-background:new 0 0 110 110;" xml:space="preserve">
<style type="text/css">
	.st0{fill:#EFF5F7;}
</style>
<g>
	<path class="st0" d="M55,2c29.2,0,53,23.8,53,53s-23.8,53-53,53S2,84.2,2,55S25.8,2,55,2 M55,0C24.6,0,0,24.6,0,55s24.6,55,55,55
		s55-24.6,55-55S85.4,0,55,0L55,0z"/>
</g>
<g>
	<path class="st0" d="M55,22c18.2,0,33,14.8,33,33S73.2,88,55,88S22,73.2,22,55S36.8,22,55,22 M55,20c-19.3,0-35,15.7-35,35
		s15.7,35,35,35s35-15.7,35-35S74.3,20,55,20L55,20z"/>
</g>
<g>
	<path class="st0" d="M55,42c7.2,0,13,5.8,13,13s-5.8,13-13,13s-13-5.8-13-13S47.8,42,55,42 M55,40c-8.3,0-15,6.7-15,15
		s6.7,15,15,15s15-6.7,15-15S63.3,40,55,40L55,40z"/>
</g>
</svg>
