<svg id="Layer_1" data-name="Layer 1" xmlns="http://www.w3.org/2000/svg" viewBox="0 0 25 25"><defs><style>.cls-1{opacity:0.1;}.cls-2{fill:none;}</style></defs><title>close</title><g class="cls-1"><circle cx="12.5" cy="12.5" r="12"/></g><rect class="cls-2" x="4.43" y="4.43" width="17.14" height="17.14"/><path d="M17.55,8.45h0a.71.71,0,0,1,0,1L9.46,17.55a.71.71,0,0,1-1,0h0a.71.71,0,0,1,0-1l8.08-8.08A.71.71,0,0,1,17.55,8.45Z"/><path d="M17.55,17.55h0a.71.71,0,0,1-1,0L8.45,9.46a.71.71,0,0,1,0-1h0a.71.71,0,0,1,1,0l8.08,8.08A.71.71,0,0,1,17.55,17.55Z"/></svg>