<?xml version="1.0" encoding="utf-8"?>
<!-- Generator: Adobe Illustrator 19.2.0, SVG Export Plug-In . SVG Version: 6.00 Build 0)  -->
<svg version="1.1" id="svg2" xmlns:svg="http://www.w3.org/2000/svg"
	 xmlns="http://www.w3.org/2000/svg" xmlns:xlink="http://www.w3.org/1999/xlink" x="0px" y="0px" width="64px" height="64px"
	 viewBox="0 0 64 64" style="enable-background:new 0 0 64 64;" xml:space="preserve">
<style type="text/css">
	.st0{fill:#FF216A;}
</style>
<g id="layer1">
	<path id="path2417" class="st0" d="M29.3,57.8c-1.4-1.5-4.8-4.4-7.6-6.5c-8.3-6.2-9.4-7.1-12.8-10.1C2.6,35.4,0,29.8,0,22.1
		c0-3.8,0.3-5.2,1.3-7.4c1.8-3.8,4.5-6.5,7.9-8.2c2.4-1.2,3.6-1.7,7.6-1.8c4.2,0,5.1,0.5,7.6,1.8c3,1.6,6.1,5.1,6.8,7.6l0.4,1.5
		l1-2.1c5.5-11.9,23.2-11.7,29.3,0.3c1.9,3.8,2.2,12,0.4,16.6c-2.3,6-6.5,10.6-16.3,17.6c-6.4,4.6-13.7,11.5-14.2,12.5
		C31.3,61.6,31.9,60.6,29.3,57.8z"/>
	<g id="g2221" transform="translate(129.28571,-64.285714)">
	</g>
</g>
</svg>
