<svg xmlns="http://www.w3.org/2000/svg" xmlns:xlink="http://www.w3.org/1999/xlink" width="240" zoomAndPan="magnify" viewBox="0 0 180 61.499998" height="82" preserveAspectRatio="xMidYMid meet" version="1.0"><defs><g/></defs><g fill="#ffffff" fill-opacity="1"><g transform="translate(30.147477, 38.848126)"><g><path d="M 26.367188 5.207031 C 22.5625 5.140625 17.355469 8.078125 12.785156 10.679688 C 8.980469 12.816406 4.640625 15.289062 3.40625 14.351562 C 3.070312 14.117188 2.636719 13.316406 3.238281 10.582031 C 4.605469 4.539062 7.410156 -6.175781 9.878906 -14.886719 C 12.882812 -25.433594 14.453125 -29.773438 15.21875 -31.542969 C 15.21875 -31.277344 15.1875 -30.910156 15.152344 -30.472656 C 15.121094 -30.105469 15.386719 -29.808594 15.722656 -29.773438 C 16.089844 -29.738281 16.390625 -30.007812 16.421875 -30.375 C 16.621094 -32.742188 16.589844 -33.84375 15.722656 -33.980469 C 14.953125 -34.113281 14.085938 -34.246094 8.945312 -16.1875 C 6.375 -7.210938 3.4375 3.9375 2.003906 10.28125 C 1.367188 12.984375 1.570312 14.621094 2.636719 15.386719 C 3.039062 15.6875 3.539062 15.820312 4.140625 15.820312 C 6.273438 15.820312 9.546875 13.984375 13.417969 11.78125 C 17.855469 9.277344 22.898438 6.410156 26.335938 6.476562 C 26.667969 6.507812 26.96875 6.207031 26.96875 5.875 C 27.003906 5.507812 26.703125 5.207031 26.367188 5.207031 Z M 26.367188 5.207031 "/></g></g><g transform="translate(52.777931, 38.848126)"><g><path d="M 9.746094 -7.578125 C 9.445312 -7.777344 9.078125 -7.675781 8.878906 -7.375 C 6.640625 -3.773438 2.902344 -0.367188 1.769531 -0.835938 C 1.636719 -0.902344 0.566406 -1.535156 2.035156 -7.175781 C 2.101562 -7.542969 1.902344 -7.878906 1.570312 -7.976562 C 1.203125 -8.042969 0.867188 -7.84375 0.769531 -7.511719 C -0.433594 -2.804688 -0.265625 -0.300781 1.234375 0.332031 C 1.46875 0.433594 1.703125 0.46875 1.9375 0.46875 C 4.4375 0.46875 8.277344 -4.003906 9.980469 -6.710938 C 10.148438 -7.007812 10.046875 -7.410156 9.746094 -7.578125 Z M 1.871094 -10.28125 C 3.570312 -10.179688 3.539062 -12.316406 2.167969 -11.847656 C 1.46875 -11.648438 0.566406 -10.347656 1.871094 -10.28125 Z M 1.871094 -10.28125 "/></g></g><g transform="translate(61.222629, 38.848126)"><g><path d="M 16.757812 -7.277344 C 16.488281 -7.511719 16.089844 -7.476562 15.855469 -7.210938 C 14.484375 -5.609375 12.648438 -4.804688 11.148438 -5.207031 C 9.914062 -5.539062 9.011719 -6.742188 8.679688 -8.542969 C 8.613281 -8.84375 8.3125 -9.046875 8.011719 -9.046875 C 7.710938 -9.046875 7.441406 -8.8125 7.410156 -8.511719 C 6.710938 -3.503906 2.738281 2.46875 0.835938 3.105469 C 0.601562 3.171875 0.535156 3.136719 0.535156 3.105469 C 0.367188 2.96875 -0.769531 1.402344 2.769531 -9.113281 C 2.871094 -9.445312 2.703125 -9.8125 2.371094 -9.914062 C 2.035156 -10.046875 1.667969 -9.847656 1.535156 -9.511719 C -2.335938 2.070312 -0.867188 3.539062 -0.402344 4.003906 C -0.199219 4.171875 0.132812 4.4375 0.632812 4.4375 C 0.800781 4.4375 1 4.40625 1.234375 4.304688 C 2.46875 3.90625 4.140625 2.136719 5.640625 -0.367188 C 6.777344 -2.238281 7.644531 -4.238281 8.175781 -6.109375 C 8.8125 -5.007812 9.714844 -4.273438 10.816406 -3.972656 C 12.785156 -3.472656 15.121094 -4.40625 16.824219 -6.375 C 17.054688 -6.640625 17.023438 -7.042969 16.757812 -7.277344 Z M 16.757812 -7.277344 "/></g></g></g><g fill="#ffffff" fill-opacity="1"><g transform="translate(76.977156, 38.848126)"><g><path d="M 11.28125 -7.441406 C 10.980469 -7.644531 10.582031 -7.578125 10.378906 -7.277344 C 7.878906 -3.773438 5.839844 -1.570312 3.839844 -0.132812 C 2.835938 0.566406 1.871094 0.699219 1.234375 0.234375 C 0.835938 -0.0664062 -0.402344 -1.402344 1.035156 -6.074219 C 4.273438 -8.746094 6.042969 -11.28125 5.574219 -12.617188 C 5.40625 -13.015625 5.007812 -13.285156 4.574219 -13.285156 C 3.238281 -13.25 1.203125 -10.949219 -0.132812 -6.640625 C -1.769531 -1.335938 -0.433594 0.601562 0.5 1.269531 C 0.96875 1.636719 1.503906 1.800781 2.101562 1.800781 C 2.871094 1.800781 3.738281 1.503906 4.574219 0.902344 C 6.710938 -0.632812 8.8125 -2.902344 11.414062 -6.542969 C 11.617188 -6.84375 11.550781 -7.242188 11.28125 -7.441406 Z M 4.304688 -11.882812 C 4.171875 -11.347656 3.605469 -10.28125 2.035156 -8.679688 C 2.902344 -10.613281 3.839844 -11.550781 4.304688 -11.882812 Z M 4.304688 -11.882812 "/></g></g></g><g fill="#ffffff" fill-opacity="1"><g transform="translate(86.69023, 38.848126)"><g/></g><g transform="translate(96.937353, 38.848126)"><g><path d="M 29.808594 -13.285156 C 29.707031 -13.617188 29.339844 -13.820312 29.003906 -13.683594 C 27.136719 -13.085938 24.5 -12.28125 21.394531 -11.347656 C 23.097656 -20.160156 24.867188 -29.238281 25.769531 -32.777344 C 25.835938 -33.109375 25.632812 -33.476562 25.300781 -33.546875 C 24.96875 -33.644531 24.601562 -33.445312 24.53125 -33.109375 C 23.597656 -29.441406 21.730469 -19.992188 19.992188 -10.949219 C 19.761719 -10.882812 19.527344 -10.78125 19.257812 -10.714844 C 15.21875 -9.511719 10.546875 -8.078125 6.074219 -6.675781 C 7.109375 -11.714844 8.34375 -17.722656 9.847656 -24.832031 L 10.011719 -25.535156 C 10.546875 -28.136719 10.378906 -29.574219 9.480469 -30.140625 C 8.710938 -30.574219 7.644531 -30.242188 6.34375 -29.105469 C 3.238281 -26.402344 -1.703125 -18.757812 -0.300781 -15.386719 C 0.0351562 -14.585938 0.835938 -13.652344 2.871094 -13.785156 C 3.238281 -13.820312 3.503906 -14.117188 3.472656 -14.484375 C 3.4375 -14.820312 3.136719 -15.085938 2.804688 -15.085938 C 1.269531 -14.988281 0.96875 -15.65625 0.867188 -15.886719 C 0.433594 -16.988281 1 -19.226562 2.4375 -21.863281 C 3.773438 -24.332031 5.640625 -26.769531 7.175781 -28.105469 C 8.246094 -29.039062 8.746094 -29.074219 8.8125 -29.003906 C 8.84375 -29.003906 9.347656 -28.605469 8.746094 -25.800781 L 8.613281 -25.101562 C 7.976562 -22.164062 6.34375 -14.453125 4.671875 -6.242188 C 2.371094 -5.507812 0.101562 -4.804688 -1.9375 -4.105469 C -5.472656 -2.9375 -8.109375 -1.96875 -9.980469 -1.167969 C -12.984375 0.101562 -13.550781 0.699219 -13.519531 1.367188 C -13.484375 1.703125 -13.285156 2.167969 -12.382812 2.335938 C -12.351562 2.335938 -12.316406 2.335938 -12.28125 2.335938 C -11.984375 2.335938 -11.714844 2.136719 -11.648438 1.835938 C -11.582031 1.570312 -11.714844 1.300781 -11.917969 1.167969 C -11.046875 0.632812 -8.476562 -0.601562 -0.800781 -3.136719 C 0.835938 -3.671875 2.570312 -4.238281 4.371094 -4.804688 C 4.039062 -3.171875 3.703125 -1.503906 3.371094 0.132812 C 2.203125 5.941406 1.300781 10.515625 0.734375 13.785156 C 0.402344 15.6875 0.132812 17.15625 0 18.15625 C -0.199219 19.625 -0.300781 20.359375 0.402344 20.5625 C 0.46875 20.59375 0.535156 20.59375 0.601562 20.59375 C 1.136719 20.59375 1.367188 19.925781 1.636719 19.226562 C 1.734375 18.890625 1.570312 18.558594 1.269531 18.425781 C 1.570312 16.089844 2.636719 10.046875 5.773438 -5.242188 C 10.480469 -6.710938 15.386719 -8.210938 19.625 -9.480469 C 19.660156 -9.511719 19.691406 -9.511719 19.726562 -9.511719 C 19.292969 -7.277344 18.890625 -5.074219 18.492188 -3.039062 C 17.488281 2.335938 16.621094 6.941406 16.222656 8.777344 C 16.15625 9.144531 16.355469 9.480469 16.722656 9.546875 C 16.757812 9.546875 16.824219 9.546875 16.855469 9.546875 C 17.15625 9.546875 17.421875 9.347656 17.488281 9.046875 C 17.855469 7.210938 18.691406 2.804688 19.761719 -2.804688 C 20.195312 -5.039062 20.660156 -7.476562 21.128906 -9.945312 C 24.5 -10.949219 27.402344 -11.816406 29.40625 -12.484375 C 29.738281 -12.582031 29.941406 -12.949219 29.808594 -13.285156 Z M 29.808594 -13.285156 "/></g></g></g><g fill="#ffffff" fill-opacity="1"><g transform="translate(125.342237, 38.848126)"><g><path d="M 13.285156 -7.210938 C 12.984375 -7.375 12.582031 -7.277344 12.417969 -6.976562 C 9.246094 -1.902344 6.574219 0.367188 6.007812 0.167969 C 6.007812 0.167969 5.339844 -0.199219 5.976562 -4.039062 C 6.207031 -5.339844 6.308594 -6.074219 5.675781 -6.34375 C 5.074219 -6.574219 4.707031 -6.074219 4.003906 -5.074219 C 3.4375 -4.273438 2.671875 -3.203125 1.835938 -2.46875 C 1.734375 -2.402344 1.367188 -2.070312 1.203125 -2.203125 C 0.699219 -2.601562 0.601562 -4.773438 1.769531 -6.777344 C 1.96875 -7.078125 1.835938 -7.476562 1.535156 -7.675781 C 1.234375 -7.84375 0.835938 -7.742188 0.667969 -7.441406 C -0.667969 -5.105469 -0.800781 -2.203125 0.367188 -1.234375 C 0.667969 -0.96875 1.503906 -0.5 2.671875 -1.46875 C 3.4375 -2.136719 4.105469 -3.003906 4.640625 -3.738281 C 4.171875 -0.632812 4.4375 0.933594 5.539062 1.367188 C 5.707031 1.433594 5.875 1.433594 6.007812 1.433594 C 8.542969 1.433594 12.648438 -4.972656 13.484375 -6.308594 C 13.683594 -6.609375 13.585938 -7.007812 13.285156 -7.210938 Z M 13.285156 -7.210938 "/></g></g></g><g fill="#ffffff" fill-opacity="1"><g transform="translate(137.291652, 38.848126)"><g><path d="M 14.085938 -7.476562 C 13.785156 -7.644531 13.382812 -7.542969 13.183594 -7.242188 C 11.414062 -4.371094 8.644531 -1.800781 5.308594 0.167969 C 6.742188 -1.800781 7.441406 -4.039062 7.410156 -5.40625 C 7.375 -6.675781 6.777344 -7.042969 6.410156 -7.144531 C 5.375 -7.476562 4.003906 -6.441406 2.269531 -3.972656 C 1.667969 -3.171875 1.066406 -2.101562 0.433594 -0.835938 C 1.433594 -5.40625 2.804688 -11.382812 3.839844 -15.855469 C 8.277344 -23.832031 10.546875 -29.839844 9.613281 -31.140625 C 9.414062 -31.441406 9.078125 -31.542969 8.746094 -31.476562 C 7.308594 -31.207031 5.074219 -26.335938 3.570312 -20.160156 C 3.304688 -19.226562 3.003906 -17.855469 2.636719 -16.289062 C 2.601562 -16.222656 2.601562 -16.15625 2.570312 -16.089844 C 0.769531 -8.34375 -2.167969 4.738281 -2.203125 5.839844 C -2.238281 6.175781 -2.003906 6.441406 -1.667969 6.507812 C -1.636719 6.507812 -1.601562 6.507812 -1.570312 6.507812 C -1.300781 6.507812 -1.035156 6.34375 -0.96875 6.042969 C -0.667969 5.171875 -0.367188 4.304688 -0.0351562 3.4375 C 0.132812 3.671875 0.433594 3.804688 0.734375 3.703125 C 4.171875 2.46875 10.515625 -0.46875 14.285156 -6.574219 C 14.453125 -6.875 14.386719 -7.277344 14.085938 -7.476562 Z M 8.511719 -29.640625 C 8.246094 -28.304688 7.308594 -25.433594 5.074219 -20.929688 C 6.34375 -25.769531 7.710938 -28.503906 8.511719 -29.640625 Z M 0.332031 2.46875 C 1.300781 0.167969 2.371094 -1.9375 3.304688 -3.238281 C 5.105469 -5.773438 5.90625 -5.90625 6.007812 -5.90625 C 6.074219 -5.839844 6.242188 -5.40625 6.042969 -4.40625 C 5.609375 -2.335938 3.773438 1.203125 0.332031 2.46875 Z M 0.332031 2.46875 "/></g></g></g></svg>